<svg width="57" height="57" viewBox="0 0 57 57" fill="none" xmlns="http://www.w3.org/2000/svg">
<path fill-rule="evenodd" clip-rule="evenodd" d="M16 6V10H27V6H16ZM15 4C14.4477 4 14 4.44772 14 5V11C14 11.5523 14.4477 12 15 12H28C28.5523 12 29 11.5523 29 11V5C29 4.44772 28.5523 4 28 4H15Z" fill="#68CCF3"/>
<path fill-rule="evenodd" clip-rule="evenodd" d="M3 52H30C30.5523 52 31 51.5523 31 51V25.7539L27.4506 12H15.1602L4.11701 23.9837C2.75572 25.4609 2 27.3962 2 29.405V51C2 51.5523 2.44772 52 3 52ZM14.2836 10L2.64626 22.6284C0.944655 24.4749 0 26.894 0 29.405V51C0 52.6569 1.34315 54 3 54H30C31.6569 54 33 52.6569 33 51V25.5L29 10H14.2836Z" fill="#68CCF3"/>
<path fill-rule="evenodd" clip-rule="evenodd" d="M12.3167 21.0515C12.7248 21.1878 13 21.5698 13 22.0001V47.0001C13 47.5523 12.5523 48.0001 12 48.0001H5C4.44772 48.0001 4 47.5523 4 47.0001V33.9849C4 32.0345 4.63362 30.1368 5.80546 28.5777L11.2006 21.3993C11.4591 21.0553 11.9086 20.9153 12.3167 21.0515ZM11 24.995L7.40424 29.7793C6.49281 30.992 6 32.4679 6 33.9849V46.0001H11V24.995Z" fill="#68CCF3"/>
<path fill-rule="evenodd" clip-rule="evenodd" d="M36.4931 38L39.6042 52H46.3955L49.5067 38H36.4931ZM36.2227 36.7832L36.2227 36.7831L36.2227 36.7832ZM35.2465 36H50.7533C51.393 36 51.8682 36.5924 51.7295 37.2169L48.1739 53.2169C48.0722 53.6745 47.6664 54 47.1977 54H38.8021C38.3334 54 37.9275 53.6745 37.8259 53.2169L34.2703 37.2169C34.1315 36.5924 34.6068 36 35.2465 36Z" fill="#68CCF3"/>
<path fill-rule="evenodd" clip-rule="evenodd" d="M49 37C49 36.4477 49.4477 36 50 36H53C55.2091 36 57 37.7909 57 40V43.6C57 44.1523 56.5523 44.6 56 44.6C55.4477 44.6 55 44.1523 55 43.6V40C55 38.8954 54.1046 38 53 38H50C49.4477 38 49 37.5523 49 37Z" fill="#68CCF3"/>
<path fill-rule="evenodd" clip-rule="evenodd" d="M31 31H19V35H31V31ZM19 29C17.8954 29 17 29.8954 17 31V35C17 36.1046 17.8954 37 19 37H31C32.1046 37 33 36.1046 33 35V31C33 29.8954 32.1046 29 31 29H19Z" fill="#68CCF3"/>
</svg>
