<svg width="57" height="57" viewBox="0 0 57 57" fill="none" xmlns="http://www.w3.org/2000/svg">
<path d="M6 44H25V52C25 52.5523 24.5523 53 24 53H7C6.44771 53 6 52.5523 6 52V44Z" fill="white"/>
<path fill-rule="evenodd" clip-rule="evenodd" d="M23 46H8V51H23V46ZM6 44V52C6 52.5523 6.44771 53 7 53H24C24.5523 53 25 52.5523 25 52V44H6Z" fill="#68CCF3"/>
<path fill-rule="evenodd" clip-rule="evenodd" d="M1 3C0.447715 3 0 3.44772 0 4V11C0 11.1174 0.0202208 11.23 0.0573688 11.3347L6 46H25L29.9597 11.2818C29.9859 11.1924 30 11.0979 30 11V4C30 3.44772 29.5523 3 29 3H1Z" fill="white"/>
<path fill-rule="evenodd" clip-rule="evenodd" d="M2 10.8298L7.68632 44H23.2654L28 10.8579V5H2V10.8298ZM25 46H6L0.0573688 11.3347C0.0202208 11.23 0 11.1174 0 11V4C0 3.44772 0.447715 3 1 3H29C29.5523 3 30 3.44772 30 4V11C30 11.0979 29.9859 11.1924 29.9597 11.2818L25 46Z" fill="#68CCF3"/>
<path d="M20 51.1655C20 53.466 17.9853 52.9507 15.5 52.9507C13.0147 52.9507 11 53.466 11 51.1655C11 48.8649 13.0147 47 15.5 47C17.9853 47 20 48.8649 20 51.1655Z" fill="white"/>
<path fill-rule="evenodd" clip-rule="evenodd" d="M17.9873 51.3478C17.9873 51.3478 17.9875 51.3464 17.9882 51.3438C17.9877 51.3466 17.9873 51.3479 17.9873 51.3478ZM17.9913 50.9913C17.8207 51.0006 17.5963 51.0026 17.2975 50.9958C17.1538 50.9925 16.982 50.9866 16.7937 50.9801C16.3998 50.9666 15.9336 50.9507 15.5 50.9507C15.0664 50.9507 14.6002 50.9666 14.2063 50.9801C14.018 50.9866 13.8462 50.9925 13.7025 50.9958C13.4037 51.0026 13.1793 51.0006 13.0087 50.9913C13.1085 49.9932 14.0551 49 15.5 49C16.9449 49 17.8915 49.9932 17.9913 50.9913ZM13.0118 51.3438C13.0125 51.3464 13.0127 51.3478 13.0127 51.3478C13.0127 51.3479 13.0123 51.3466 13.0118 51.3438ZM16.6657 52.9771C18.5859 53.0438 20 53.0928 20 51.1655C20 48.8649 17.9853 47 15.5 47C13.0147 47 11 48.8649 11 51.1655C11 53.0928 12.4141 53.0438 14.3343 52.9771C14.7061 52.9642 15.0969 52.9507 15.5 52.9507C15.9031 52.9507 16.2939 52.9642 16.6657 52.9771Z" fill="#68CCF3"/>
<path d="M1 10H28V12H1V10Z" fill="black"/>
<path fill-rule="evenodd" clip-rule="evenodd" d="M1 10V12H28V10H1Z" fill="#68CCF3"/>
<path d="M4 12L4 3L6 3L6 12L4 12Z" fill="black"/>
<path fill-rule="evenodd" clip-rule="evenodd" d="M4 12L6 12L6 3L4 3L4 12Z" fill="#68CCF3"/>
<path d="M8 12L8 3L10 3L10 12L8 12Z" fill="black"/>
<path fill-rule="evenodd" clip-rule="evenodd" d="M8 12L10 12L10 3L8 3L8 12Z" fill="#68CCF3"/>
<path d="M12 12L12 3L14 3L14 12L12 12Z" fill="black"/>
<path fill-rule="evenodd" clip-rule="evenodd" d="M12 12L14 12L14 3L12 3L12 12Z" fill="#68CCF3"/>
<path d="M16 12L16 3L18 3L18 12L16 12Z" fill="black"/>
<path fill-rule="evenodd" clip-rule="evenodd" d="M16 12L18 12L18 3L16 3L16 12Z" fill="#68CCF3"/>
<path d="M20 12L20 3L22 3L22 12L20 12Z" fill="black"/>
<path fill-rule="evenodd" clip-rule="evenodd" d="M20 12L22 12L22 3L20 3L20 12Z" fill="#68CCF3"/>
<path d="M24 12L24 3L26 3L26 12L24 12Z" fill="black"/>
<path fill-rule="evenodd" clip-rule="evenodd" d="M24 12L26 12L26 3L24 3L24 12Z" fill="#68CCF3"/>
<path d="M15.1259 31.9745C14.754 31.9417 14.3165 32.0183 14.0212 31.8542C13.1024 31.3292 12.6759 31.8433 12.2493 32.5214C11.779 33.287 11.1556 33.5058 10.5431 33.1558C9.93057 32.8058 9.8212 32.0292 10.2915 31.2854C10.4774 30.9901 10.7509 30.7604 10.8931 30.4542C11.0899 30.0386 11.3415 29.5683 11.2978 29.1417C10.9806 25.7511 13.4415 22.4808 16.7993 22.0651C17.729 21.9448 18.7353 21.9886 19.6321 22.2183C21.404 22.6886 21.8087 23.2573 21.8524 25.0839C21.929 28.7917 18.9759 31.9745 15.1259 31.9745ZM17.9149 24.3073C15.104 24.4714 13.6493 26.1886 13.6493 28.7589C13.6493 28.9886 13.9228 29.3823 14.1196 29.4151C16.6571 29.8964 18.7571 28.9229 19.4243 26.1011C19.7524 24.6683 19.4134 24.3073 17.9149 24.3073Z" fill="#68CCF3"/>
<path fill-rule="evenodd" clip-rule="evenodd" d="M12.2493 32.5214C12.6759 31.8433 13.1024 31.3292 14.0212 31.8542C14.2242 31.967 14.4945 31.966 14.7644 31.9651C14.8871 31.9647 15.0097 31.9643 15.1259 31.9745C18.9759 31.9745 21.929 28.7917 21.8524 25.0839C21.8087 23.2573 21.404 22.6886 19.6321 22.2183C18.7353 21.9886 17.729 21.9448 16.7993 22.0651C13.4415 22.4808 10.9806 25.7511 11.2978 29.1417C11.3374 29.5282 11.1346 29.9506 10.9497 30.3357C10.9305 30.3756 10.9116 30.4152 10.8931 30.4542C10.8108 30.6313 10.6847 30.7828 10.557 30.9363C10.4638 31.0481 10.3699 31.1609 10.2915 31.2854C9.8212 32.0292 9.93057 32.8058 10.5431 33.1558C11.1556 33.5058 11.779 33.287 12.2493 32.5214ZM11.7981 30.8795C11.6688 31.1564 11.4928 31.3737 11.3802 31.5102C11.3563 31.5392 11.3348 31.5651 11.3154 31.5885C11.2242 31.6985 11.1783 31.7538 11.1377 31.8183L11.1367 31.8199C11.0005 32.0352 10.995 32.1811 11.0021 32.2331C11.0054 32.2577 11.0113 32.2658 11.0114 32.266C11.012 32.2669 11.0133 32.2687 11.0164 32.2716C11.0196 32.2745 11.0265 32.2803 11.0392 32.2875C11.0646 32.302 11.0831 32.3096 11.0946 32.3135C11.1004 32.3155 11.1046 32.3166 11.1074 32.3172C11.1265 32.3093 11.2416 32.2514 11.3972 31.998L11.4028 31.9889L11.4029 31.9889C11.6023 31.6719 11.939 31.145 12.4774 30.8557C13.129 30.5056 13.823 30.6049 14.4656 30.957C14.4861 30.9596 14.5199 30.9625 14.5732 30.964C14.6284 30.9655 14.6801 30.9654 14.7475 30.9651C14.7747 30.965 14.8044 30.9649 14.8379 30.9649C14.9282 30.9649 15.0426 30.9658 15.1635 30.9744C18.416 30.9538 20.9169 28.2593 20.8527 25.1062C20.8312 24.2143 20.7147 23.9052 20.5958 23.7497C20.4835 23.6027 20.2287 23.4116 19.3799 23.1859C18.6194 22.9918 17.7436 22.9513 16.9277 23.0569L16.9222 23.0576L16.9222 23.0576C14.1408 23.4018 12.0245 26.1542 12.2931 29.0451C12.3361 29.4769 12.2274 29.8669 12.1241 30.1475C12.0391 30.3783 11.9262 30.6129 11.8434 30.7851C11.827 30.8192 11.8117 30.8508 11.7981 30.8795ZM17.8858 23.3073H17.9149C18.3163 23.3073 18.7095 23.3301 19.0596 23.413C19.4149 23.4972 19.8114 23.6635 20.1136 24.0158C20.4217 24.3749 20.5223 24.7989 20.5369 25.1779C20.551 25.5435 20.4883 25.9349 20.3991 26.3243L20.3975 26.3312L20.3975 26.3312C20.0134 27.9555 19.1823 29.1628 17.9744 29.8622C16.7863 30.5501 15.3687 30.6687 13.9398 30.3989C13.6422 30.3452 13.4285 30.1887 13.3171 30.0944C13.1864 29.9838 13.0787 29.8575 12.9946 29.7389C12.8572 29.5449 12.6493 29.1811 12.6493 28.7589C12.6493 27.2866 13.0687 25.9495 13.9948 24.9508C14.9238 23.9489 16.2563 23.4024 17.8567 23.309L17.8858 23.3073ZM14.1196 29.4151C13.9228 29.3823 13.6493 28.9886 13.6493 28.7589C13.6493 26.1886 15.104 24.4714 17.9149 24.3073C19.4134 24.3073 19.7524 24.6683 19.4243 26.1011C18.7571 28.9229 16.6571 29.8964 14.1196 29.4151Z" fill="#68CCF3"/>
<path fill-rule="evenodd" clip-rule="evenodd" d="M26 38.0748C26.041 37.7727 26.0813 37.4706 26.1203 37.1683V38.087V50.6323C26.1203 52.2948 26.3062 52.6995 27.925 52.9073C31.1734 53.312 34.4328 53.6839 37.7031 53.8151C40.9734 53.9464 44.2656 53.8698 47.5469 53.7058C50.1609 53.5745 52.7531 53.2355 55.3453 52.8636C56.7125 52.6667 56.8984 52.2948 56.8984 50.9386V27.6745C56.8984 26.0011 56.6359 25.6292 54.9297 25.3667C54.7329 25.3356 54.536 25.3042 54.3391 25.2728C52.6634 25.0053 50.9791 24.7364 49.2859 24.6776L49.1286 24.6724C41.9294 24.4334 34.7298 24.1945 27.4547 25.4323C27.4891 25.1915 26.8644 24.8137 26 24.3872V38.0748ZM27.9031 36.3261C36.9703 37.4308 46.0375 37.4417 55.1594 36.3261V51.2667C46.0812 52.4151 37.014 52.3933 27.9031 51.2776V36.3261ZM27.8578 29.8186C27.8531 29.3204 27.8484 28.8242 27.8484 28.3308C36.9922 29.4464 46.0375 29.4464 55.1703 28.3308C55.1703 28.7599 55.172 29.1918 55.1738 29.626L55.1738 29.627V29.6271V29.6271C55.1796 31.0851 55.1855 32.5681 55.1265 34.0511C55.1265 34.2589 54.514 34.5761 54.164 34.6198C53.8443 34.6541 53.5246 34.6891 53.2048 34.7241L53.2046 34.7241C51.3805 34.9237 49.5551 35.1234 47.7219 35.1886C44.2219 35.3089 40.7109 35.3745 37.2 35.287C35.3248 35.2427 33.4495 35.0639 31.5743 34.885C30.6714 34.7989 29.7685 34.7128 28.8656 34.6417C28.1219 34.5761 27.7937 34.2808 27.8265 33.4495C27.8807 32.2354 27.8692 31.0212 27.8578 29.8186V29.8186ZM52.4906 26.7995C45.1844 26.0886 37.8672 26.0886 30.5609 26.7995C37.8672 27.6089 45.1734 27.5979 52.4906 26.7995ZM33.3064 49.4949H41.7721H50.5658C51.5721 49.4949 51.8455 49.2105 51.8455 48.2043V40.3402C51.8455 39.334 51.5721 39.0277 50.5877 39.0277C44.8018 39.0168 39.0158 39.0168 33.2299 39.0277C32.1689 39.0277 31.9502 39.2684 31.9502 40.373V48.1496C31.9611 49.3199 32.1252 49.4949 33.3064 49.4949ZM50.0736 40.8871V47.6684H33.7549V40.8871H50.0736Z" fill="#68CCF3"/>
</svg>
