<svg width="57" height="57" viewBox="0 0 57 57" fill="none" xmlns="http://www.w3.org/2000/svg">
<path d="M17.2398 25.1571C17.2398 25.8096 16.7088 26.3406 16.0563 26.3406C15.5388 26.3406 15.0483 26.4801 14.5848 26.7411C13.5093 27.3666 12.8388 28.5951 12.8388 29.9496C12.8388 30.3366 12.8973 30.7191 13.0188 31.0926C13.0323 31.1331 13.0953 31.3401 13.0998 31.3896C13.1178 31.4301 13.3428 31.7631 13.5048 32.0241C14.0268 32.8296 14.7378 33.9411 15.2148 35.3811C15.4173 36.0021 15.0753 36.6726 14.4588 36.8751C14.3328 36.9156 14.2113 36.9336 14.0898 36.9336C13.5948 36.9336 13.1313 36.6186 12.9648 36.1191C12.5868 34.9671 12.0198 34.0896 11.5203 33.3111C11.2683 32.9196 10.9398 32.3796 10.8768 32.2446C10.8498 32.1771 10.7913 31.9251 10.7733 31.8531C10.5618 31.2096 10.4628 30.5886 10.4628 29.9541C10.4628 27.7536 11.5878 25.7421 13.3878 24.6936C14.2158 24.2166 15.1068 23.9736 16.0473 23.9736C16.7088 23.9736 17.2398 24.5001 17.2398 25.1571ZM48.0243 50.2581C48.0243 50.524 48.0198 54.3666 48.0198 54.3666C48.0198 55.0191 47.4933 55.5501 46.8363 55.5501H31.4553C30.7983 55.5501 30.2718 55.0191 30.2718 54.3666V51.0861C29.7138 51.3741 29.1288 51.6351 28.5213 51.8286C28.3998 51.8646 28.2828 51.8826 28.1703 51.8826C27.9228 51.8826 27.6753 51.8061 27.4638 51.6531C27.1623 51.4281 26.9868 51.0771 26.9868 50.6991C26.9958 44.5161 24.4623 40.3131 22.1943 40.3131C19.9173 40.3131 17.3928 44.5116 17.3928 50.5461C17.3928 50.9241 17.2173 51.3561 16.9113 51.5811C16.6053 51.8016 16.2183 51.9456 15.8583 51.8286C12.0198 50.6136 9.54478 47.6751 9.54478 44.3451C9.76078 42.1086 9.97228 38.3331 9.60328 37.2216C9.36478 36.5061 8.94628 35.8626 8.54578 35.2326C8.05528 34.4766 7.54678 33.6936 7.35328 32.7576C7.08328 31.9206 6.92578 30.9351 6.92578 29.9451C6.92578 26.4846 8.73028 23.2896 11.6238 21.6111C14.9808 19.6671 19.3863 20.2296 22.1853 22.8666C24.6423 20.5536 28.3278 19.8381 31.4598 21.0081L31.3518 10.2627C31.3833 9.62367 31.8918 9.12867 32.5353 9.12867H34.8078V4.09317C34.8078 3.44067 35.3388 2.90967 35.9913 2.90967H41.9088C42.2238 2.90967 42.5253 3.03567 42.7458 3.25617C42.9663 3.47667 43.0923 3.77817 43.0923 4.09317L43.0878 9.12417H45.2568C45.8958 9.12417 46.4133 9.62367 46.4403 10.2582C46.4403 10.2582 47.9973 49.4852 48.0108 49.6371C48.0243 49.7891 48.0243 50.0078 48.0243 50.0078C48.0243 50.0078 48.0243 49.9922 48.0243 50.2581ZM37.1703 8.98917H40.7163L40.7208 5.29017H37.1703V8.98917ZM33.6648 11.5002L32.6838 48.8406H45.6033L44.1183 11.5002H33.6648ZM29.2998 48.9441C29.6778 48.7416 30.0153 48.4941 30.3393 48.2376L31.3518 23.5731C28.6203 22.1151 25.0878 22.8666 23.1078 25.3596C22.8873 25.6431 22.5453 25.8051 22.1808 25.8051C21.8163 25.8051 21.4788 25.6386 21.2493 25.3596C19.2288 22.8081 15.5658 22.0656 12.8073 23.6631C10.6338 24.9186 9.28378 27.3306 9.28378 29.9496C9.28378 30.6966 9.40078 31.4481 9.63028 32.1681C9.76978 32.7801 10.1208 33.3201 10.5258 33.9546C10.9848 34.6701 11.5113 35.4801 11.8488 36.4836C12.4788 38.3961 11.9973 43.4676 11.8983 44.4666C11.9073 46.2216 13.1133 47.9046 15.0798 48.9531C15.5388 42.6081 18.4998 37.9506 22.1898 37.9506C25.8888 37.9506 28.8633 42.6666 29.2998 48.9441ZM45.6528 53.1831L45.6573 51.2076H32.6388V53.1831H45.6528Z" fill="#68CCF3"/>
</svg>
