<svg width="57" height="57" viewBox="0 0 57 57" fill="none" xmlns="http://www.w3.org/2000/svg">
<path fill-rule="evenodd" clip-rule="evenodd" d="M31 19V53H54V19H31ZM30 17C29.4477 17 29 17.4477 29 18V54C29 54.5523 29.4477 55 30 55H55C55.5523 55 56 54.5523 56 54V18C56 17.4477 55.5523 17 55 17H30Z" fill="#68CCF3"/>
<path fill-rule="evenodd" clip-rule="evenodd" d="M31 5V12H54V5H31ZM30 3C29.4477 3 29 3.44771 29 4V13C29 13.5523 29.4477 14 30 14H55C55.5523 14 56 13.5523 56 13V4C56 3.44772 55.5523 3 55 3H30Z" fill="#68CCF3"/>
<path fill-rule="evenodd" clip-rule="evenodd" d="M37 15V17H48V15H37ZM36 13C35.4477 13 35 13.4477 35 14V18C35 18.5523 35.4477 19 36 19H49C49.5523 19 50 18.5523 50 18V14C50 13.4477 49.5523 13 49 13H36Z" fill="#68CCF3"/>
<path fill-rule="evenodd" clip-rule="evenodd" d="M37 27V41H48V27H37ZM36 25C35.4477 25 35 25.4477 35 26V42C35 42.5523 35.4477 43 36 43H49C49.5523 43 50 42.5523 50 42V26C50 25.4477 49.5523 25 49 25H36Z" fill="#68CCF3"/>
<path d="M14 20C14 19.4477 14.4477 19 15 19H21C21.5523 19 22 19.4477 22 20V28C22 28.5523 21.5523 29 21 29H15C14.4477 29 14 28.5523 14 28V20Z" fill="white"/>
<path fill-rule="evenodd" clip-rule="evenodd" d="M16 21V27H20V21H16ZM15 19C14.4477 19 14 19.4477 14 20V28C14 28.5523 14.4477 29 15 29H21C21.5523 29 22 28.5523 22 28V20C22 19.4477 21.5523 19 21 19H15Z" fill="#68CCF3"/>
<path d="M13 26C13 25.4477 13.4477 25 14 25H22C22.5523 25 23 25.4477 23 26V33C23 33.5523 22.5523 34 22 34H14C13.4477 34 13 33.5523 13 33V26Z" fill="white"/>
<path fill-rule="evenodd" clip-rule="evenodd" d="M15 27V32H21V27H15ZM14 25C13.4477 25 13 25.4477 13 26V33C13 33.5523 13.4477 34 14 34H22C22.5523 34 23 33.5523 23 33V26C23 25.4477 22.5523 25 22 25H14Z" fill="#68CCF3"/>
<path d="M11 22.5C11 25.5376 8.53757 28 5.5 28C2.46243 28 0 25.5376 0 22.5C0 19.4624 2.46243 17 5.5 17C8.53757 17 11 19.4624 11 22.5Z" fill="white"/>
<path fill-rule="evenodd" clip-rule="evenodd" d="M5.5 26C7.433 26 9 24.433 9 22.5C9 20.567 7.433 19 5.5 19C3.567 19 2 20.567 2 22.5C2 24.433 3.567 26 5.5 26ZM5.5 28C8.53757 28 11 25.5376 11 22.5C11 19.4624 8.53757 17 5.5 17C2.46243 17 0 19.4624 0 22.5C0 25.5376 2.46243 28 5.5 28Z" fill="#68CCF3"/>
<path d="M26.6654 55C29.3257 52.5872 31 49.0803 31 45.1771C31 37.8996 25.1797 32 18 32C10.8203 32 5 37.8996 5 45.1771C5 49.0803 6.67428 52.5872 9.33458 55H26.6654Z" fill="white"/>
<path fill-rule="evenodd" clip-rule="evenodd" d="M25.8565 53C27.8004 50.9849 29 48.2268 29 45.1771C29 38.9786 24.0497 34 18 34C11.9503 34 7 38.9786 7 45.1771C7 48.2268 8.19955 50.9849 10.1435 53H25.8565ZM26.6654 55C29.3257 52.5872 31 49.0803 31 45.1771C31 37.8996 25.1797 32 18 32C10.8203 32 5 37.8996 5 45.1771C5 49.0803 6.67428 52.5872 9.33458 55H26.6654Z" fill="#68CCF3"/>
<path d="M10 21H14V23H10V21Z" fill="#68CCF3"/>
<path fill-rule="evenodd" clip-rule="evenodd" d="M13.7855 38.1394C14.2607 38.4208 14.4179 39.0342 14.1365 39.5094C12.5286 42.225 12.2058 46.7738 14.5869 49.9914C14.9154 50.4353 14.8218 51.0616 14.3779 51.3901C13.9339 51.7186 13.3077 51.625 12.9792 51.1811C10.0398 47.209 10.471 41.7747 12.4155 38.4904C12.6969 38.0152 13.3103 37.8581 13.7855 38.1394Z" fill="#68CCF3"/>
</svg>
