<svg width="57" height="57" viewBox="0 0 57 57" fill="none" xmlns="http://www.w3.org/2000/svg">
<path fill-rule="evenodd" clip-rule="evenodd" d="M27.3433 19H15.6563C12.1564 19 9.39942 21.9832 9.67487 25.4722L11.8481 53H31.1515L33.3247 25.4722C33.6002 21.9832 30.8432 19 27.3433 19ZM15.6563 17C10.9898 17 7.31381 20.9776 7.68108 25.6296L9.92706 54.0787C9.96812 54.5988 10.4022 55 10.924 55H32.0756C32.5974 55 33.0315 54.5989 33.0725 54.0787L35.3185 25.6296C35.6858 20.9776 32.0098 17 27.3433 17H15.6563Z" fill="#68CCF3"/>
<path fill-rule="evenodd" clip-rule="evenodd" d="M26.709 24H16.2902C15.1305 24 14.2139 24.9832 14.2951 26.14L15.8297 48H27.1696L28.7041 26.14C28.7853 24.9832 27.8687 24 26.709 24ZM16.2902 22C13.9708 22 12.1376 23.9664 12.3001 26.2801L13.8998 49.07C13.9366 49.5938 14.3723 50 14.8974 50H28.1018C28.6269 50 29.0626 49.5938 29.0994 49.07L30.6992 26.2801C30.8616 23.9664 29.0284 22 26.709 22H16.2902Z" fill="#68CCF3"/>
<path d="M14 30H29V32H14V30Z" fill="#68CCF3"/>
<path d="M14 12H29V14H14V12Z" fill="#68CCF3"/>
<path fill-rule="evenodd" clip-rule="evenodd" d="M25 3H18C16.8954 3 16 3.89543 16 5V17H27V5C27 3.89543 26.1046 3 25 3ZM18 1C15.7909 1 14 2.79086 14 5V19H29V5C29 2.79086 27.2091 1 25 1H18Z" fill="#68CCF3"/>
<path d="M14 37H29V39H14V37Z" fill="#68CCF3"/>
<path d="M30 37.5L34.5 39L33.5 47L36 53.5H33.5L29 51.5L23.5 45L25 44L29 44.5L28.5 40.5L30 37.5Z" fill="white"/>
<path d="M53.738 44.0647C53.6058 43.8313 53.4287 43.6272 53.2171 43.4647C53.0055 43.3022 52.7639 43.1845 52.5065 43.1187C51.373 42.8292 50.1969 42.7522 49.0361 42.8917C49.3364 41.1706 49.2255 39.4016 48.7127 37.733C48.5631 37.2584 48.2445 36.8572 47.8191 36.6077C47.3937 36.3582 46.8919 36.2783 46.4116 36.3834C45.2558 36.643 44.1531 37.1039 43.1526 37.7456C42.3551 36.0421 41.1699 34.555 39.6947 33.4068C39.351 33.1428 38.9317 33 38.5006 33C38.0694 33 37.6501 33.1428 37.3064 33.4068C35.8312 34.555 34.646 36.0421 33.8485 37.7456C32.848 37.1039 31.7454 36.643 30.5896 36.3834C30.1092 36.2783 29.6074 36.3582 29.182 36.6077C28.7566 36.8572 28.438 37.2584 28.2884 37.733C27.7756 39.4016 27.6647 41.1706 27.965 42.8917C26.8042 42.7522 25.6281 42.8292 24.4946 43.1187C24.2375 43.1844 23.9961 43.3018 23.7846 43.464C23.5732 43.6261 23.3961 43.8298 23.2638 44.0627C23.1315 44.2957 23.0468 44.5533 23.0146 44.8201C22.9824 45.0869 23.0035 45.3576 23.0766 45.616C23.5119 47.2053 24.8553 50.245 28.9352 52.6288C33.0151 55.0126 36.5726 55 38.4881 55H38.513C40.4286 55 44.0109 55 48.0659 52.6288C52.1209 50.2576 53.4892 47.2053 53.9245 45.616C53.9967 45.3579 54.0174 45.0877 53.9854 44.8213C53.9533 44.5549 53.8692 44.2977 53.738 44.0647ZM46.822 38.3636C47.1703 39.4231 47.4937 41.3277 46.7847 43.7746L46.7474 43.9133C46.4594 44.8609 46.0628 45.7711 45.5657 46.6251C44.9625 47.681 44.2358 48.6592 43.4014 49.5386C44.0358 48.0251 44.4711 46.171 44.4711 43.9007C44.4814 42.4667 44.2845 41.0389 43.8865 39.6628C44.7724 39.0402 45.7695 38.5989 46.822 38.3636ZM38.5006 35.0212C39.6947 35.9294 42.4809 38.6033 42.4809 43.9007C42.4809 49.1981 39.6574 51.9225 38.5006 52.7801C37.3438 51.9225 34.5202 49.2611 34.5202 43.9007C34.5202 38.5402 37.3064 35.9294 38.5006 35.0212ZM30.1791 38.3636C31.2316 38.5989 32.2288 39.0402 33.1146 39.6628C32.7167 41.0389 32.5197 42.4667 32.53 43.9007C32.53 46.171 32.9653 48.0251 33.5997 49.5386C32.7654 48.6592 32.0387 47.681 31.4354 46.6251C30.9359 45.7679 30.5392 44.8533 30.2537 43.9007L30.2164 43.7872C29.4949 41.3277 29.8308 39.4231 30.1791 38.3636ZM24.9797 45.0737C25.7509 44.8719 26.9575 44.7205 28.5123 44.998C28.828 45.9148 29.2322 46.7978 29.7188 47.6341C30.7855 49.5028 32.1859 51.1538 33.8485 52.5027C32.4746 52.1464 31.156 51.5989 29.9303 50.8756C26.4723 48.8449 25.3529 46.3602 24.9797 45.0737ZM47.0708 50.8756C45.8451 51.5989 44.5265 52.1464 43.1526 52.5027C44.8153 51.1538 46.2157 49.5028 47.2823 47.6341C47.7689 46.7978 48.1731 45.9148 48.4888 44.998C49.6538 44.7714 50.8526 44.7929 52.009 45.0611C51.6483 46.3602 50.5288 48.8449 47.0708 50.8756Z" fill="#68CCF3"/>
</svg>
