<svg width="5" height="10" viewBox="0 0 5 10" fill="none" xmlns="http://www.w3.org/2000/svg">
<path d="M0.30848 1.02247C0.19131 1.13967 0.125488 1.29862 0.125488 1.46434C0.125488 1.63007 0.19131 1.78901 0.30848 1.90622L3.40223 4.99997L0.30848 8.09372C0.194631 8.2116 0.131634 8.36947 0.133058 8.53335C0.134482 8.69722 0.200213 8.85398 0.316093 8.96986C0.431973 9.08574 0.588731 9.15147 0.752604 9.15289C0.916477 9.15431 1.07435 9.09132 1.19223 8.97747L4.72785 5.44184C4.84502 5.32464 4.91085 5.1657 4.91085 4.99997C4.91085 4.83424 4.84502 4.6753 4.72785 4.55809L1.19223 1.02247C1.07502 0.9053 0.916082 0.839478 0.750355 0.839478C0.584627 0.839478 0.425685 0.9053 0.30848 1.02247Z" fill="#27AFE4"/>
</svg>
