<svg width="22" height="22" viewBox="0 0 22 22" fill="none" xmlns="http://www.w3.org/2000/svg">
<g clip-path="url(#clip0_526_2559)">
<path d="M21.2918 2.12497C21.6814 1.73565 21.6816 1.10416 21.2921 0.714686V0.714686C20.9028 0.325436 20.2718 0.32531 19.8824 0.714405L10.9997 9.59002L2.11694 0.707769C1.72758 0.318426 1.09631 0.318435 0.706962 0.707789V0.707789C0.317593 1.09716 0.317602 1.72845 0.706981 2.11781L9.58968 11L0.697276 19.879C0.307413 20.2683 0.307176 20.9 0.696745 21.2895V21.2895C1.0859 21.6787 1.71677 21.6789 2.10621 21.2901L10.9997 12.41L19.8787 21.289C20.268 21.6784 20.8993 21.6784 21.2887 21.289V21.289C21.678 20.8996 21.678 20.2684 21.2887 19.879L12.4097 11L21.2918 2.12497Z" fill="#525252"/>
</g>
<defs>
<clipPath id="clip0_526_2559">
<rect width="22" height="22" fill="white"/>
</clipPath>
</defs>
</svg>
