<svg width="16" height="16" viewBox="0 0 16 16" fill="none" xmlns="http://www.w3.org/2000/svg">
<path d="M2.33333 2.27271C1.71449 2.27271 1.121 2.51407 0.683417 2.9437C0.245833 3.37333 0 3.95603 0 4.56361V4.79385L7 8.49481L14 4.795V4.56361C14 3.95603 13.7542 3.37333 13.3166 2.9437C12.879 2.51407 12.2855 2.27271 11.6667 2.27271H2.33333ZM14 6.09509L7.2765 9.64943C7.19152 9.69435 7.09651 9.71786 7 9.71786C6.90349 9.71786 6.80848 9.69435 6.7235 9.64943L0 6.09509V11.4363C0 12.0439 0.245833 12.6266 0.683417 13.0563C1.121 13.4859 1.71449 13.7273 2.33333 13.7273H11.6667C12.2855 13.7273 12.879 13.4859 13.3166 13.0563C13.7542 12.6266 14 12.0439 14 11.4363V6.09509Z" fill="#525252"/>
</svg>
