<svg width="16" height="16" viewBox="0 0 16 16" fill="none" xmlns="http://www.w3.org/2000/svg">
<g clip-path="url(#clip0_520_1556)">
<path d="M13.3046 0.2225L15.5423 2.47833C15.8838 2.81131 15.9995 3.25269 16 3.68254C15.9431 5.58349 15.0093 7.38031 14.0505 8.85562C12.2887 11.2772 10.1043 13.4992 7.46442 14.8937C6.35745 15.4286 4.94504 16.0562 3.70945 15.9962C3.24465 15.9908 2.78848 15.8656 2.48888 15.5382L0.234198 13.2824C-0.164242 12.814 -0.026482 12.361 0.437625 12.0612L3.87898 10.2464C4.28668 10.0554 4.7235 10.165 5.01482 10.45L5.84549 11.2811C5.91577 11.3324 5.99577 11.365 6.08284 11.3659C7.31646 11.0472 8.45349 10.0817 9.23598 9.22879C10.0185 8.3759 11.0786 7.45913 11.3296 6.2691C11.3706 6.12201 11.385 5.94183 11.2872 5.83659L10.304 4.86979C10.0514 4.53651 9.9279 4.05531 10.1345 3.69951L10.1345 3.68255L12.067 0.409087C12.3683 -0.0714594 12.9504 -0.121567 13.3046 0.2225Z" fill="#5F7187"/>
</g>
<defs>
<clipPath id="clip0_520_1556">
<rect width="16" height="16" fill="white" transform="translate(0 16) rotate(-90)"/>
</clipPath>
</defs>
</svg>
