<svg width="16" height="16" viewBox="0 0 16 16" fill="none" xmlns="http://www.w3.org/2000/svg">
<g clip-path="url(#clip0_575_4263)">
<path d="M15.7777 13.3048L13.5219 15.5425C13.1889 15.884 12.7475 15.9997 12.3176 16.0002C10.4167 15.9433 8.61987 15.0095 7.14456 14.0507C4.72294 12.289 2.50099 10.1045 1.10646 7.46467C0.571602 6.3577 -0.0559709 4.94528 0.00398907 3.7097C0.00933573 3.2449 0.134589 2.78872 0.461936 2.48912L2.71775 0.234442C3.18618 -0.163998 3.63918 -0.0262377 3.93894 0.437869L5.75375 3.87923C5.94476 4.28692 5.83519 4.72375 5.5502 5.01507L4.71911 5.84574C4.6678 5.91602 4.63514 5.99602 4.63431 6.08308C4.953 7.31671 5.91848 8.45374 6.77139 9.23623C7.62428 10.0187 8.54106 11.0789 9.73108 11.3298C9.87818 11.3709 10.0583 11.3853 10.1636 11.2875L11.1304 10.3042C11.4637 10.0516 11.9449 9.92815 12.3007 10.1347H12.3176L15.5911 12.0673C16.0716 12.3685 16.1217 12.9506 15.7777 13.3048Z" fill="#525252"/>
</g>
<defs>
<clipPath id="clip0_575_4263">
<rect width="16" height="16" fill="white"/>
</clipPath>
</defs>
</svg>
