<svg width="336" height="244" viewBox="0 0 336 244" fill="none" xmlns="http://www.w3.org/2000/svg">
<path d="M114.554 244C111.652 244 108.931 243.541 106.392 242.624C103.853 241.722 101.495 240.179 99.319 237.995L5.73479 144.107C1.74477 140.104 -0.16319 134.915 0.0109198 128.539C0.199539 122.178 2.28885 116.996 6.27888 112.993C10.2689 108.99 15.3471 106.989 21.5135 106.989C27.6799 106.989 32.7581 108.99 36.7482 112.993L114.554 191.051L299.002 6.00448C302.992 2.00149 308.164 0 314.519 0C320.86 0 326.025 2.00149 330.015 6.00448C334.005 10.0075 336 15.1895 336 21.5506C336 27.9263 334.005 33.1156 330.015 37.1186L129.788 237.995C127.612 240.179 125.254 241.722 122.715 242.624C120.176 243.541 117.455 244 114.554 244Z" fill="#EEFAFF"/>
</svg>
