<svg width="25" height="25" viewBox="0 0 25 25" fill="none" xmlns="http://www.w3.org/2000/svg">
<path d="M12.7129 4.71631C11.7846 4.71631 10.8944 5.08506 10.238 5.74144C9.58164 6.39781 9.21289 7.28805 9.21289 8.21631H11.2129C11.2129 7.81848 11.3709 7.43695 11.6522 7.15565C11.9335 6.87434 12.3151 6.71631 12.7129 6.71631C13.1107 6.71631 13.4922 6.87434 13.7736 7.15565C14.0549 7.43695 14.2129 7.81848 14.2129 8.21631C14.2129 8.61413 14.0549 8.99566 13.7736 9.27697C13.4922 9.55827 13.1107 9.71631 12.7129 9.71631C12.1629 9.71631 11.7129 10.1663 11.7129 10.7163V12.4663L3.11289 18.9163C2.94498 19.0422 2.82096 19.2178 2.75838 19.4181C2.6958 19.6185 2.69784 19.8334 2.76421 20.0325C2.83058 20.2316 2.95791 20.4048 3.12818 20.5276C3.29845 20.6503 3.50301 20.7163 3.71289 20.7163H21.7129C21.9228 20.7163 22.1273 20.6503 22.2976 20.5276C22.4679 20.4048 22.5952 20.2316 22.6616 20.0325C22.7279 19.8334 22.73 19.6185 22.6674 19.4181C22.6048 19.2178 22.4808 19.0422 22.3129 18.9163L13.7129 12.4663V11.5663C14.4345 11.3512 15.0675 10.909 15.5179 10.3055C15.9683 9.702 16.212 8.96934 16.2129 8.21631C16.2129 7.28805 15.8441 6.39781 15.1878 5.74144C14.5314 5.08506 13.6411 4.71631 12.7129 4.71631M12.7129 14.2163L18.7129 18.7163H6.71289L12.7129 14.2163Z" fill="#3E6BFE"/>
</svg>
