<svg width="10" height="12" viewBox="0 0 10 12" fill="none" xmlns="http://www.w3.org/2000/svg">
<g clip-path="url(#clip0_605_501)">
<path d="M3.30799 3.02247C3.19082 3.13967 3.125 3.29862 3.125 3.46434C3.125 3.63007 3.19082 3.78901 3.30799 3.90622L6.40174 6.99997L3.30799 10.0937C3.19414 10.2116 3.13115 10.3695 3.13257 10.5333C3.13399 10.6972 3.19972 10.854 3.3156 10.9699C3.43148 11.0857 3.58824 11.1515 3.75212 11.1529C3.91599 11.1543 4.07386 11.0913 4.19174 10.9775L7.72737 7.44184C7.84454 7.32464 7.91036 7.1657 7.91036 6.99997C7.91036 6.83424 7.84454 6.6753 7.72737 6.55809L4.19174 3.02247C4.07454 2.9053 3.91559 2.83948 3.74987 2.83948C3.58414 2.83948 3.4252 2.9053 3.30799 3.02247Z" fill="#68CCF3"/>
</g>
<defs>
<clipPath id="clip0_605_501">
<rect width="12" height="10" fill="white" transform="matrix(-4.37114e-08 1 1 4.37114e-08 0 0)"/>
</clipPath>
</defs>
</svg>
