<svg width="56" height="75" viewBox="0 0 56 75" fill="none" xmlns="http://www.w3.org/2000/svg">
<mask id="mask0_520_222" style="mask-type:alpha" maskUnits="userSpaceOnUse" x="0" y="0" width="55" height="74">
<path d="M27.3803 63.4809C27.0149 63.48 26.6557 63.3874 26.3353 63.2117L9.71031 53.6167C9.40242 53.425 9.14712 53.1595 8.96745 52.8444C8.78777 52.5293 8.68939 52.1744 8.68115 51.8118V32.6218C8.69058 32.2615 8.7896 31.9093 8.96928 31.5969C9.14897 31.2845 9.40365 31.0219 9.71031 30.8326V30.8326L26.3511 21.2218C26.6727 21.0499 27.0316 20.96 27.3962 20.96C27.7607 20.96 28.1196 21.0499 28.4412 21.2218L45.0662 30.8326C45.3728 31.0219 45.6275 31.2845 45.8072 31.5969C45.9869 31.9093 46.0859 32.2615 46.0953 32.6218V51.8276C46.0842 52.2014 45.9781 52.5661 45.7869 52.8874C45.5958 53.2088 45.3259 53.4761 45.0028 53.6642L28.4253 63.1642C28.1143 63.3673 27.7517 63.4772 27.3803 63.4809V63.4809ZM12.592 50.8143L27.3803 59.3485L42.1845 50.8143V33.6826L27.3803 25.1484L12.592 33.6826V50.8143Z" fill="#5F7187"/>
<path d="M27.3796 73.4239C27.0142 73.4229 26.655 73.3304 26.3346 73.1547L1.19128 58.5881C0.884615 58.3988 0.629935 58.1361 0.450251 57.8237C0.270566 57.5114 0.171536 57.1591 0.162109 56.7989V27.6656C0.169129 27.3008 0.268708 26.9438 0.451495 26.6281C0.634282 26.3124 0.894291 26.0482 1.20712 25.8605L16.5971 16.9781V2.37973C16.5727 2.10815 16.605 1.83445 16.6922 1.57608C16.7793 1.3177 16.9194 1.08029 17.1033 0.879018C17.2873 0.677743 17.5111 0.517013 17.7606 0.407033C18.0102 0.297053 18.2798 0.240234 18.5525 0.240234C18.8252 0.240234 19.0949 0.297053 19.3444 0.407033C19.5939 0.517013 19.8178 0.677743 20.0017 0.879018C20.1857 1.08029 20.3257 1.3177 20.4129 1.57608C20.5 1.83445 20.5324 2.10815 20.5079 2.37973V18.0389C20.4985 18.3991 20.3995 18.7513 20.2198 19.0637C20.0401 19.3761 19.7854 19.6388 19.4788 19.828L4.07294 28.7264V55.738L27.4588 69.2439L50.8604 55.738V28.7264L35.4546 19.828C35.1479 19.6388 34.8933 19.3761 34.7136 19.0637C34.5339 18.7513 34.4349 18.3991 34.4255 18.0389V2.37973C34.401 2.10815 34.4334 1.83445 34.5205 1.57608C34.6077 1.3177 34.7477 1.08029 34.9316 0.879018C35.1156 0.677743 35.3395 0.517013 35.589 0.407033C35.8385 0.297053 36.1082 0.240234 36.3809 0.240234C36.6535 0.240234 36.9232 0.297053 37.1727 0.407033C37.4222 0.517013 37.6461 0.677743 37.8301 0.879018C38.0141 1.08029 38.1541 1.3177 38.2412 1.57608C38.3284 1.83445 38.3607 2.10815 38.3363 2.37973V16.9781L53.7421 25.8605C54.05 26.0523 54.3053 26.3178 54.485 26.6329C54.6646 26.948 54.763 27.3029 54.7713 27.6656V56.7989C54.762 57.1709 54.6565 57.5342 54.4651 57.8533C54.2736 58.1724 54.0027 58.4365 53.6788 58.6197L28.5038 73.1705C28.1602 73.3587 27.7707 73.4465 27.3796 73.4239V73.4239Z" fill="#5F7187"/>
</mask>
<g mask="url(#mask0_520_222)">
<rect y="-1" width="57" height="76" fill="white"/>
</g>
</svg>
