<svg width="24" height="32" viewBox="0 0 24 32" fill="none" xmlns="http://www.w3.org/2000/svg">
<path d="M11.962 27.6509C11.8014 27.6505 11.6435 27.61 11.5027 27.5332L4.19625 23.3379C4.06094 23.2541 3.94874 23.138 3.86977 23.0002C3.79081 22.8625 3.74757 22.7073 3.74395 22.5487V14.1582C3.7481 14.0007 3.79161 13.8467 3.87058 13.7101C3.94955 13.5735 4.06148 13.4587 4.19625 13.3759L11.5097 9.1737C11.651 9.09856 11.8087 9.05923 11.9689 9.05923C12.1292 9.05923 12.2869 9.09856 12.4282 9.1737L19.7347 13.3759C19.8695 13.4587 19.9814 13.5735 20.0604 13.7101C20.1393 13.8467 20.1828 14.0007 20.187 14.1582V22.5557C20.1821 22.7191 20.1355 22.8785 20.0515 23.019C19.9674 23.1595 19.8488 23.2764 19.7068 23.3587L12.4212 27.5124C12.2846 27.6012 12.1252 27.6493 11.962 27.6509ZM5.46271 22.1126L11.962 25.844L18.4682 22.1126V14.622L11.962 10.8906L5.46271 14.622V22.1126Z" fill="#5F7187"/>
<path d="M11.9617 31.9985C11.8012 31.9981 11.6433 31.9576 11.5025 31.8808L0.452306 25.5117C0.317531 25.429 0.205603 25.3141 0.126634 25.1775C0.0476653 25.041 0.00414282 24.887 0 24.7294V11.9913C0.00308523 11.8318 0.0468485 11.6758 0.127181 11.5377C0.207514 11.3997 0.321784 11.2842 0.459266 11.2021L7.22297 7.31837V0.935461C7.21222 0.816718 7.22644 0.697047 7.26474 0.584077C7.30305 0.471106 7.36458 0.367303 7.44543 0.279299C7.52628 0.191294 7.62467 0.121018 7.73432 0.0729304C7.84398 0.0248433 7.9625 0 8.08234 0C8.20218 0 8.32071 0.0248433 8.43036 0.0729304C8.54002 0.121018 8.63841 0.191294 8.71926 0.279299C8.8001 0.367303 8.86164 0.471106 8.89994 0.584077C8.93824 0.697047 8.95247 0.816718 8.94172 0.935461V7.78219C8.93758 7.9397 8.89406 8.09371 8.81509 8.2303C8.73612 8.36688 8.6242 8.48173 8.48942 8.56448L1.71876 12.4551V24.2656L11.9965 30.1708L22.2812 24.2656V12.4551L15.5106 8.56448C15.3758 8.48173 15.2639 8.36688 15.1849 8.2303C15.1059 8.09371 15.0624 7.9397 15.0583 7.78219V0.935461C15.0475 0.816718 15.0618 0.697047 15.1001 0.584077C15.1384 0.471106 15.1999 0.367303 15.2807 0.279299C15.3616 0.191294 15.46 0.121018 15.5696 0.0729304C15.6793 0.0248433 15.7978 0 15.9177 0C16.0375 0 16.156 0.0248433 16.2657 0.0729304C16.3753 0.121018 16.4737 0.191294 16.5546 0.279299C16.6354 0.367303 16.697 0.471106 16.7353 0.584077C16.7736 0.697047 16.7878 0.816718 16.777 0.935461V7.31837L23.5477 11.2021C23.683 11.286 23.7952 11.402 23.8742 11.5398C23.9531 11.6776 23.9964 11.8328 24 11.9913V24.7294C23.9959 24.8921 23.9496 25.0509 23.8654 25.1905C23.7813 25.33 23.6622 25.4455 23.5199 25.5256L12.4558 31.8877C12.3048 31.97 12.1336 32.0084 11.9617 31.9985Z" fill="#5F7187"/>
</svg>
