<svg width="58" height="58" viewBox="0 0 58 58" fill="none" xmlns="http://www.w3.org/2000/svg">
<rect width="58" height="58" rx="8" fill="#5F7187"/>
<path d="M28.9461 45.6123C28.7187 45.6117 28.495 45.5522 28.2955 45.4394L17.9447 39.2776C17.753 39.1544 17.594 38.984 17.4822 38.7816C17.3703 38.5792 17.3091 38.3513 17.3039 38.1185V25.7948C17.3098 25.5635 17.3715 25.3373 17.4833 25.1367C17.5952 24.9361 17.7538 24.7674 17.9447 24.6459L28.3054 18.4739C28.5056 18.3635 28.729 18.3057 28.956 18.3057C29.183 18.3057 29.4065 18.3635 29.6066 18.4739L39.9575 24.6459C40.1484 24.7674 40.307 24.9361 40.4188 25.1367C40.5307 25.3373 40.5924 25.5635 40.5982 25.7948V38.1286C40.5913 38.3686 40.5252 38.6029 40.4062 38.8092C40.2872 39.0156 40.1192 39.1873 39.918 39.3081L29.5968 45.4089C29.4031 45.5393 29.1774 45.6099 28.9461 45.6123ZM19.7388 37.4779L28.9461 42.9584L38.1633 37.4779V26.4761L28.9461 20.9955L19.7388 26.4761V37.4779Z" fill="white"/>
<path d="M28.9458 51.9978C28.7183 51.9972 28.4946 51.9377 28.2952 51.8249L12.6408 42.4704C12.4498 42.3488 12.2913 42.1801 12.1794 41.9795C12.0675 41.7789 12.0059 41.5527 12 41.3214V22.6123C12.0044 22.378 12.0664 22.1488 12.1802 21.946C12.294 21.7433 12.4559 21.5736 12.6506 21.4531L22.2325 15.7489V6.37396C22.2173 6.19955 22.2375 6.02379 22.2917 5.85786C22.346 5.69194 22.4332 5.53948 22.5477 5.41022C22.6622 5.28096 22.8016 5.17774 22.957 5.10712C23.1123 5.03649 23.2802 5 23.45 5C23.6198 5 23.7877 5.03649 23.943 5.10712C24.0984 5.17774 24.2377 5.28096 24.3523 5.41022C24.4668 5.53948 24.554 5.69194 24.6082 5.85786C24.6625 6.02379 24.6827 6.19955 24.6674 6.37396V16.4301C24.6616 16.6614 24.5999 16.8876 24.488 17.0882C24.3762 17.2888 24.2176 17.4575 24.0267 17.5791L14.4349 23.2935V40.6401L28.9951 49.3134L43.5651 40.6401V23.2935L33.9733 17.5791C33.7824 17.4575 33.6238 17.2888 33.512 17.0882C33.4001 16.8876 33.3384 16.6614 33.3326 16.4301V6.37396C33.3173 6.19955 33.3375 6.02379 33.3918 5.85786C33.446 5.69194 33.5332 5.53948 33.6477 5.41022C33.7623 5.28096 33.9016 5.17774 34.057 5.10712C34.2123 5.03649 34.3803 5 34.55 5C34.7198 5 34.8877 5.03649 35.043 5.10712C35.1984 5.17774 35.3378 5.28096 35.4523 5.41022C35.5669 5.53948 35.654 5.69194 35.7083 5.85786C35.7626 6.02379 35.7827 6.19955 35.7675 6.37396V15.7489L45.3592 21.4531C45.5509 21.5763 45.7099 21.7467 45.8218 21.9491C45.9336 22.1514 45.9949 22.3794 46 22.6123V41.3214C45.9943 41.5603 45.9286 41.7936 45.8094 41.9985C45.6901 42.2034 45.5215 42.373 45.3198 42.4907L29.6457 51.8351C29.4318 51.9559 29.1893 52.0123 28.9458 51.9978Z" fill="white"/>
</svg>
