<svg width="21" height="21" viewBox="0 0 21 21" fill="none" xmlns="http://www.w3.org/2000/svg">
<g clip-path="url(#clip0_223_2660)">
<path d="M18.1099 17.6105L14.5494 14.061C15.7401 12.6386 16.4569 10.8045 16.4569 8.80149C16.4569 4.28162 12.8124 0.617676 8.29284 0.617676C3.77326 0.617676 0.109375 4.2816 0.109375 8.80116C0.109375 13.3207 3.7733 16.9846 8.29284 16.9846C10.3558 16.9846 12.2353 16.2192 13.6699 14.9597L17.2206 18.5C17.4661 18.7455 17.8644 18.7455 18.1096 18.5C18.3554 18.2542 18.3554 17.8563 18.1099 17.6105ZM8.28223 15.706C4.47968 15.706 1.36679 12.5931 1.36679 8.79051C1.36679 4.98796 4.47968 1.87507 8.28223 1.87507C12.0848 1.87507 15.1977 4.98796 15.1977 8.79051C15.1977 12.5931 12.0848 15.706 8.28223 15.706ZM11.4256 8.16183H8.9109V5.64713C8.9109 5.3001 8.62926 5.01845 8.28223 5.01845C7.9352 5.01845 7.65355 5.3001 7.65355 5.64713V8.16183H5.13885C4.79182 8.16183 4.51017 8.44348 4.51017 8.79051C4.51017 9.13754 4.79182 9.41919 5.13885 9.41919H7.65355V11.9339C7.65355 12.2809 7.9352 12.5626 8.28223 12.5626C8.62926 12.5626 8.9109 12.2809 8.9109 11.9339V9.41919H11.4256C11.7726 9.41919 12.0543 9.13754 12.0543 8.79051C12.0543 8.44348 11.773 8.16183 11.4256 8.16183Z" fill="white"/>
</g>
<defs>
<clipPath id="clip0_223_2660">
<rect width="20.1176" height="20.1176" fill="white" transform="translate(0.176758 0.617676)"/>
</clipPath>
</defs>
</svg>
