<svg width="48" height="48" viewBox="0 0 48 48" fill="none" xmlns="http://www.w3.org/2000/svg">
<g clip-path="url(#clip0_1009_4788)">
<path fill-rule="evenodd" clip-rule="evenodd" d="M6 0C4.4087 0 2.88258 0.632141 1.75736 1.75736C0.632141 2.88258 0 4.4087 0 6V42C0 43.5913 0.632141 45.1174 1.75736 46.2426C2.88258 47.3679 4.4087 48 6 48H42C43.5913 48 45.1174 47.3679 46.2426 46.2426C47.3679 45.1174 48 43.5913 48 42V6C48 4.4087 47.3679 2.88258 46.2426 1.75736C45.1174 0.632141 43.5913 0 42 0H6Z" fill="#68CCF3"/>
<path fill-rule="evenodd" clip-rule="evenodd" d="M12 24C12 23.1716 12.6716 22.5 13.5 22.5L34.5 22.5C35.3284 22.5 36 23.1716 36 24C36 24.8284 35.3284 25.5 34.5 25.5L13.5 25.5C12.6716 25.5 12 24.8284 12 24Z" fill="white"/>
</g>
<defs>
<clipPath id="clip0_1009_4788">
<rect width="48" height="48" fill="white"/>
</clipPath>
</defs>
</svg>
