<svg width="773" height="53" viewBox="0 0 773 53" fill="none" xmlns="http://www.w3.org/2000/svg">
<rect y="23.0039" width="255" height="5.99327" fill="#3279A8"/>
<path d="M253.031 21.3077C253.031 18.5462 255.27 16.3077 258.031 16.3077H271.806V36.6923H258.031C255.27 36.6923 253.031 34.4537 253.031 31.6923V21.3077Z" fill="#2C4877"/>
<path d="M271.812 8.26153C271.812 5.50011 274.051 3.26154 276.813 3.26154H312.628V49.7385H276.812C274.051 49.7385 271.812 47.4999 271.812 44.7385V8.26153Z" fill="#396898"/>
<path d="M340.792 10.6C342.818 10.6 344.461 12.2428 344.461 14.2692C344.461 16.2957 342.818 17.9385 340.792 17.9385L322.421 17.9385L322.421 10.6L340.792 10.6Z" fill="#2D4877"/>
<path d="M340.792 32.6154C342.818 32.6154 344.461 34.2582 344.461 36.2846C344.461 38.3111 342.818 39.9538 340.792 39.9538L322.421 39.9538L322.421 32.6154L340.792 32.6154Z" fill="#2D4877"/>
<path fill-rule="evenodd" clip-rule="evenodd" d="M271.805 27.4362V8.26153C271.805 5.50011 274.043 3.26154 276.805 3.26154H312.62V48.9235C310.241 49.4585 307.786 49.7384 305.276 49.7384C291.101 49.7384 278.685 40.8103 271.805 27.4362Z" fill="#467AB6"/>
<path fill-rule="evenodd" clip-rule="evenodd" d="M279.969 3.26154H312.882V37.148C297.006 34.7993 284.08 21.1846 279.969 3.26154Z" fill="#598FC8"/>
<path fill-rule="evenodd" clip-rule="evenodd" d="M271.333 36.6923C263.996 32.4836 257.845 26.4474 253.5 19.2055C254.294 17.4943 256.027 16.3077 258.038 16.3077H271.813V36.6923H271.333Z" fill="#37629F"/>
<rect x="310.992" y="3.26154" width="1.6326" height="46.4769" fill="#33629F"/>
<rect x="270.18" y="16.3077" width="1.6326" height="20.3846" fill="#2A5284"/>
<rect x="312.625" width="9.7956" height="53" fill="#497FB2"/>
<rect x="322.422" y="10.6" width="1.6326" height="7.33846" fill="#1F2A41"/>
<rect x="322.422" y="32.6154" width="1.6326" height="7.33846" fill="#1F2A41"/>
<rect width="255" height="5.99327" transform="matrix(-1 0 0 1 773 23.0039)" fill="#3279A8"/>
<path d="M519.969 21.3077C519.969 18.5462 517.73 16.3077 514.969 16.3077H501.194V36.6923H514.969C517.73 36.6923 519.969 34.4537 519.969 31.6923V21.3077Z" fill="#2C4877"/>
<path d="M501.188 8.26147C501.188 5.50005 498.949 3.26147 496.187 3.26147H460.372V49.7384H496.188C498.949 49.7384 501.188 47.4998 501.188 44.7384V8.26147Z" fill="#396898"/>
<path fill-rule="evenodd" clip-rule="evenodd" d="M501.195 27.4363V8.2615C501.195 5.50008 498.957 3.26151 496.195 3.26151H460.38V48.9235C462.74 49.4543 465.175 49.734 467.664 49.7384H467.784C481.934 49.7133 494.325 40.7914 501.195 27.4363Z" fill="#467AB6"/>
<path fill-rule="evenodd" clip-rule="evenodd" d="M493.031 3.26151H460.118V37.1479C475.994 34.7993 488.92 21.1846 493.031 3.26151Z" fill="#598FC8"/>
<path fill-rule="evenodd" clip-rule="evenodd" d="M501.667 36.6923C509.004 32.4836 515.155 26.4474 519.5 19.2055C518.706 17.4943 516.973 16.3077 514.962 16.3077H501.187V36.6923H501.667Z" fill="#37629F"/>
<rect width="1.6326" height="46.4769" transform="matrix(-1 0 0 1 462.008 3.26147)" fill="#33629F"/>
<rect width="1.6326" height="20.3846" transform="matrix(-1 0 0 1 502.82 16.3077)" fill="#2A5284"/>
<rect width="9.7956" height="53" transform="matrix(-1 0 0 1 460.375 0)" fill="#497FB2"/>
</svg>
