<svg width="375" height="53" viewBox="0 0 375 53" fill="none" xmlns="http://www.w3.org/2000/svg">
<rect x="-166" y="23.0039" width="255" height="5.99327" fill="#3279A8"/>
<path d="M87.0312 21.3077C87.0312 18.5462 89.2698 16.3077 92.0312 16.3077H105.806V36.6923H92.0312C89.2698 36.6923 87.0312 34.4537 87.0312 31.6923V21.3077Z" fill="#2C4877"/>
<path d="M105.812 8.26153C105.812 5.50011 108.051 3.26154 110.813 3.26154H146.628V49.7385H110.812C108.051 49.7385 105.812 47.4999 105.812 44.7385V8.26153Z" fill="#396898"/>
<path d="M175.5 11C177.433 11 179 12.567 179 14.5C179 16.433 177.433 18 175.5 18L156 18L156 11L175.5 11Z" fill="#2D4877"/>
<path d="M175.5 33C177.433 33 179 34.567 179 36.5C179 38.433 177.433 40 175.5 40L156 40L156 33L175.5 33Z" fill="#2D4877"/>
<path fill-rule="evenodd" clip-rule="evenodd" d="M105.805 27.4362V8.26153C105.805 5.50011 108.043 3.26154 110.805 3.26154H146.62V48.9235C144.241 49.4585 141.786 49.7384 139.276 49.7384C125.101 49.7384 112.685 40.8103 105.805 27.4362Z" fill="#467AB6"/>
<path fill-rule="evenodd" clip-rule="evenodd" d="M113.973 3.26154H146.886V37.148C131.01 34.7993 118.083 21.1846 113.973 3.26154Z" fill="#598FC8"/>
<path fill-rule="evenodd" clip-rule="evenodd" d="M105.333 36.6923C97.9963 32.4836 91.8446 26.4474 87.5 19.2055C88.294 17.4943 90.0274 16.3077 92.0379 16.3077H105.813V36.6923H105.333Z" fill="#37629F"/>
<rect x="144.992" y="3.26154" width="1.6326" height="46.4769" fill="#33629F"/>
<rect x="104.18" y="16.3077" width="1.6326" height="20.3846" fill="#2A5284"/>
<rect x="146.625" width="9.7956" height="53" fill="#497FB2"/>
<rect x="156.422" y="11" width="1.6326" height="7" fill="#1F2A41"/>
<rect x="156.422" y="33" width="1.6326" height="7" fill="#1F2A41"/>
<rect width="256" height="6" transform="matrix(-1 0 0 1 542 23)" fill="#3279A8"/>
<path d="M288.391 21.3077C288.391 18.5462 286.152 16.3077 283.391 16.3077H269.616V36.6923H283.391C286.152 36.6923 288.391 34.4537 288.391 31.6923V21.3077Z" fill="#2C4877"/>
<path d="M269.609 8.26147C269.609 5.50005 267.371 3.26147 264.609 3.26147H228.794V49.7384H264.609C267.371 49.7384 269.609 47.4998 269.609 44.7384V8.26147Z" fill="#396898"/>
<path fill-rule="evenodd" clip-rule="evenodd" d="M269.617 27.4363V8.2615C269.617 5.50008 267.379 3.26151 264.617 3.26151H228.802V48.9235C231.162 49.4543 233.597 49.734 236.086 49.7384H236.206C250.356 49.7133 262.747 40.7914 269.617 27.4363Z" fill="#467AB6"/>
<path fill-rule="evenodd" clip-rule="evenodd" d="M261.449 3.26151H228.536V37.1479C244.412 34.7993 257.338 21.1846 261.449 3.26151Z" fill="#598FC8"/>
<path fill-rule="evenodd" clip-rule="evenodd" d="M270.089 36.6923C277.426 32.4836 283.577 26.4474 287.922 19.2055C287.128 17.4943 285.394 16.3077 283.384 16.3077H269.609V36.6923H270.089Z" fill="#37629F"/>
<rect width="1.6326" height="46.4769" transform="matrix(-1 0 0 1 230.43 3.26147)" fill="#33629F"/>
<rect width="1.6326" height="20.3846" transform="matrix(-1 0 0 1 271.242 16.3077)" fill="#2A5284"/>
<rect width="9.7956" height="53" transform="matrix(-1 0 0 1 228.797 0)" fill="#497FB2"/>
</svg>
