<svg width="48" height="48" viewBox="0 0 48 48" fill="none" xmlns="http://www.w3.org/2000/svg">
<g clip-path="url(#clip0_1009_3706)">
<path fill-rule="evenodd" clip-rule="evenodd" d="M1.75736 1.75736C2.88258 0.632141 4.4087 0 6 0H42C43.5913 0 45.1174 0.632141 46.2426 1.75736C47.3679 2.88258 48 4.4087 48 6V42C48 43.5913 47.3679 45.1174 46.2426 46.2426C45.1174 47.3679 43.5913 48 42 48H6C4.4087 48 2.88258 47.3679 1.75736 46.2426C0.632141 45.1174 0 43.5913 0 42V6C0 4.4087 0.632141 2.88258 1.75736 1.75736Z" fill="#68CCF3"/>
<path fill-rule="evenodd" clip-rule="evenodd" d="M24 36C23.1716 36 22.5 35.3284 22.5 34.5V13.5C22.5 12.6716 23.1716 12 24 12C24.8284 12 25.5 12.6716 25.5 13.5V34.5C25.5 35.3284 24.8284 36 24 36Z" fill="white"/>
<path fill-rule="evenodd" clip-rule="evenodd" d="M12 24C12 23.1716 12.6716 22.5 13.5 22.5L34.5 22.5C35.3284 22.5 36 23.1716 36 24C36 24.8284 35.3284 25.5 34.5 25.5L13.5 25.5C12.6716 25.5 12 24.8284 12 24Z" fill="white"/>
</g>
<defs>
<clipPath id="clip0_1009_3706">
<rect width="48" height="48" fill="white"/>
</clipPath>
</defs>
</svg>
