<svg width="1440" height="186" viewBox="0 0 1440 186" fill="none" xmlns="http://www.w3.org/2000/svg">
<g clip-path="url(#clip0_223_2434)">
<path fill-rule="evenodd" clip-rule="evenodd" d="M1281.78 1.26923C1281.8 0.441147 1282.49 -0.210937 1283.32 -0.18724C1288.53 -0.0381009 1293.74 0.357865 1298.91 1.00124C1299.73 1.10344 1300.32 1.85272 1300.22 2.67482C1300.11 3.49693 1299.36 4.08052 1298.54 3.97832C1293.46 3.34673 1288.35 2.95796 1283.24 2.81152C1282.41 2.78783 1281.76 2.09732 1281.78 1.26923ZM1269.29 1.50296C1269.34 2.32958 1268.71 3.04396 1267.89 3.09859C1262.78 3.43579 1257.69 4.01416 1252.64 4.83318C1251.82 4.96561 1251.05 4.41002 1250.92 3.59225C1250.78 2.77448 1251.34 2.00418 1252.16 1.87175C1257.31 1.03758 1262.49 0.448532 1267.69 0.105103C1268.52 0.0504917 1269.23 0.676331 1269.29 1.50296ZM1312.53 4.80811C1312.71 3.99957 1313.51 3.49048 1314.32 3.67099C1319.4 4.80554 1324.43 6.18648 1329.4 7.81435C1330.18 8.07249 1330.61 8.91991 1330.36 9.70709C1330.1 10.4943 1329.25 10.9231 1328.46 10.665C1323.59 9.06766 1318.65 7.71245 1313.66 6.59891C1312.86 6.4184 1312.35 5.61662 1312.53 4.80811ZM726.216 5.21675C726.25 4.38904 726.949 3.7458 727.777 3.78004C732.969 3.9949 738.151 4.4581 743.302 5.16992C744.123 5.28333 744.696 6.04051 744.583 6.86113C744.47 7.68176 743.712 8.25508 742.892 8.14168C737.836 7.44304 732.75 6.98837 727.653 6.77748C726.825 6.74323 726.182 6.04446 726.216 5.21675ZM713.768 5.29688C713.813 6.12408 713.179 6.83104 712.352 6.87592C707.261 7.15207 702.18 7.67128 697.131 8.43329C696.312 8.55692 695.547 7.99309 695.424 7.17394C695.3 6.35478 695.864 5.59052 696.683 5.46689C701.827 4.69057 707.003 4.16164 712.189 3.88031C713.017 3.83545 713.724 4.46967 713.768 5.29688ZM1238.69 6.17271C1238.9 6.97423 1238.42 7.79376 1237.62 8.00317C1232.67 9.29448 1227.78 10.8231 1222.97 12.5885C1222.19 12.8737 1221.33 12.4743 1221.04 11.6965C1220.76 10.9187 1221.16 10.057 1221.94 9.77182C1226.84 7.97321 1231.82 6.41597 1236.86 5.10062C1237.66 4.89121 1238.48 5.37119 1238.69 6.17271ZM173.981 7.61598C174.015 6.78825 174.714 6.14481 175.541 6.17882C180.714 6.39133 185.878 6.85349 191.012 7.56548C191.833 7.67928 192.406 8.43672 192.292 9.25731C192.178 10.0779 191.421 10.6508 190.6 10.537C185.562 9.83838 180.495 9.38484 175.418 9.17628C174.591 9.14227 173.947 8.44371 173.981 7.61598ZM161.59 7.70511C161.636 8.53226 161.002 9.24002 160.175 9.28593C155.102 9.56749 150.042 10.0939 145.014 10.8649C144.196 10.9905 143.43 10.4285 143.304 9.60966C143.179 8.79082 143.741 8.02519 144.56 7.8996C149.683 7.11383 154.84 6.57744 160.009 6.29054C160.836 6.24463 161.544 6.87796 161.59 7.70511ZM756.817 9.15855C757.009 8.35274 757.818 7.85533 758.624 8.04755C763.672 9.25188 768.669 10.7033 773.593 12.4021C774.377 12.6723 774.792 13.5262 774.522 14.3093C774.252 15.0925 773.398 15.5083 772.615 15.2381C767.784 13.5715 762.882 12.1474 757.928 10.9657C757.122 10.7735 756.624 9.96437 756.817 9.15855ZM683.218 9.61981C683.42 10.4233 682.932 11.2382 682.129 11.4398C677.19 12.6793 672.304 14.1587 667.489 15.8776C666.709 16.1561 665.851 15.7494 665.572 14.9692C665.294 14.189 665.7 13.3308 666.48 13.0522C671.387 11.3005 676.367 9.79303 681.398 8.53011C682.202 8.32843 683.017 8.81631 683.218 9.61981ZM204.469 11.5541C204.662 10.7485 205.472 10.2519 206.277 10.445C211.305 11.6501 216.282 13.1027 221.188 14.8032C221.97 15.0745 222.385 15.929 222.114 16.7117C221.842 17.4945 220.988 17.909 220.205 17.6377C215.394 15.9698 210.511 14.5447 205.578 13.3624C204.772 13.1693 204.276 12.3597 204.469 11.5541ZM131.162 12.0814C131.366 12.8841 130.882 13.7008 130.079 13.9055C125.163 15.1586 120.302 16.6537 115.515 18.3907C114.736 18.6733 113.876 18.2711 113.593 17.4923C113.31 16.7136 113.713 15.8532 114.491 15.5706C119.372 13.7998 124.328 12.2757 129.338 10.9984C130.14 10.7938 130.957 11.2786 131.162 12.0814ZM1342.02 14.1796C1342.36 13.4217 1343.24 13.0783 1344 13.4127C1348.75 15.51 1353.42 17.8494 1357.98 20.4316C1358.7 20.8399 1358.95 21.7553 1358.54 22.4761C1358.14 23.1969 1357.22 23.4502 1356.5 23.0418C1352.03 20.5094 1347.45 18.2148 1342.79 16.1574C1342.03 15.823 1341.69 14.9375 1342.02 14.1796ZM1209.53 16.5592C1209.89 17.3058 1209.58 18.202 1208.83 18.561C1204.24 20.7696 1199.74 23.2086 1195.34 25.8775C1194.64 26.3077 1193.71 26.0825 1193.28 25.3745C1192.85 24.6666 1193.08 23.7439 1193.79 23.3137C1198.26 20.5935 1202.85 18.1079 1207.53 15.8574C1208.28 15.4984 1209.17 15.8126 1209.53 16.5592ZM786.073 18.9469C786.42 18.1944 787.311 17.8654 788.063 18.212C792.767 20.3788 797.38 22.7876 801.88 25.4388C802.594 25.8592 802.832 26.7787 802.411 27.4925C801.991 28.2063 801.071 28.4441 800.358 28.0236C795.945 25.4241 791.421 23.0619 786.808 20.9368C786.055 20.5903 785.726 19.6993 786.073 18.9469ZM654.068 19.7229C654.421 20.4721 654.101 21.3661 653.352 21.7197C648.758 23.8877 644.255 26.289 639.862 28.9235C639.151 29.3495 638.23 29.1189 637.804 28.4084C637.378 27.6979 637.608 26.7766 638.319 26.3506C642.798 23.6647 647.389 21.2166 652.071 19.0067C652.82 18.6531 653.714 18.9738 654.068 19.7229ZM233.606 21.3469C233.954 20.5951 234.845 20.2676 235.597 20.6154C240.279 22.7816 244.871 25.1896 249.352 27.8396C250.065 28.2613 250.301 29.1812 249.879 29.8943C249.458 30.6073 248.538 30.8436 247.825 30.4218C243.431 27.8236 238.929 25.4624 234.337 23.3381C233.585 22.9903 233.258 22.0988 233.606 21.3469ZM102.169 22.2924C102.527 23.0391 102.213 23.9352 101.466 24.2939C96.9055 26.484 92.4376 28.9097 88.082 31.5709C87.3751 32.0028 86.4518 31.7798 86.0199 31.0729C85.588 30.366 85.811 29.4428 86.5179 29.0109C90.9603 26.2967 95.5168 23.8229 100.167 21.5896C100.914 21.2309 101.81 21.5456 102.169 22.2924ZM1369.09 29.1734C1369.57 28.4974 1370.51 28.3375 1371.18 28.8163C1375.41 31.8098 1379.51 35.0353 1383.48 38.4934C1384.1 39.038 1384.16 39.9856 1383.62 40.6098C1383.07 41.2341 1382.13 41.2986 1381.5 40.754C1377.62 37.3628 1373.59 34.1998 1369.45 31.2645C1368.77 30.7856 1368.61 29.8494 1369.09 29.1734ZM1182.94 32.3806C1183.44 33.0428 1183.3 33.9832 1182.64 34.481C1178.58 37.5338 1174.64 40.8058 1170.85 44.2967C1170.24 44.8574 1169.29 44.8176 1168.73 44.2078C1168.16 43.5979 1168.2 42.649 1168.81 42.0883C1172.68 38.5301 1176.7 35.1948 1180.84 32.083C1181.5 31.5852 1182.44 31.7185 1182.94 32.3806ZM812.8 34.3447C813.291 33.6772 814.23 33.5339 814.897 34.0246C819.057 37.0821 823.09 40.3709 826.978 43.891C827.592 44.4469 827.639 45.3955 827.083 46.0097C826.527 46.6238 825.579 46.671 824.965 46.115C821.152 42.6637 817.198 39.4394 813.12 36.4417C812.453 35.951 812.31 35.0121 812.8 34.3447ZM627.462 35.3332C627.957 35.9977 627.819 36.9374 627.155 37.4322C623.094 40.4556 619.157 43.7012 615.36 47.1689C614.748 47.7276 613.799 47.6846 613.241 47.073C612.682 46.4613 612.725 45.5125 613.337 44.9538C617.208 41.4181 621.223 38.1087 625.363 35.026C626.027 34.5312 626.967 34.6688 627.462 35.3332ZM260.211 36.7334C260.702 36.0667 261.641 35.9249 262.308 36.4167C266.446 39.4691 270.46 42.7518 274.33 46.2649C274.943 46.8217 274.989 47.7703 274.432 48.3837C273.875 48.9971 272.927 49.0429 272.313 48.4861C268.519 45.0418 264.584 41.8235 260.527 38.831C259.861 38.3392 259.719 37.4001 260.211 36.7334ZM75.788 38.06C76.2894 38.7195 76.1611 39.6606 75.5015 40.1618C71.4881 43.2124 67.6 46.487 63.8557 49.9856C63.2504 50.5512 62.3012 50.519 61.7356 49.9137C61.17 49.3083 61.2022 48.3591 61.8075 47.7935C65.6265 44.2252 69.5924 40.8851 73.6862 37.7735C74.3457 37.2722 75.2867 37.4004 75.788 38.06ZM1392.6 49.2807C1393.21 48.7142 1394.16 48.7449 1394.72 49.3494C1398.25 53.1151 1401.63 57.0959 1404.85 61.2924C1405.36 61.9498 1405.23 62.8914 1404.57 63.3955C1403.92 63.8996 1402.98 63.7754 1402.47 63.118C1399.31 59 1396 55.0945 1392.53 51.4009C1391.97 50.7965 1392 49.8472 1392.6 49.2807ZM1159.96 53.1012C1160.58 53.653 1160.63 54.6013 1160.08 55.2191C1156.71 58.9974 1153.48 62.9788 1150.41 67.163C1149.92 67.8314 1148.98 67.9763 1148.32 67.4868C1147.65 66.9973 1147.5 66.0587 1147.99 65.3904C1151.11 61.1278 1154.4 57.071 1157.84 53.2205C1158.39 52.6027 1159.34 52.5493 1159.96 53.1012ZM835.869 54.8125C836.484 54.2576 837.433 54.3063 837.988 54.9214C841.434 58.7409 844.729 62.774 847.856 67.0206C848.347 67.6876 848.204 68.6266 847.537 69.1178C846.87 69.6091 845.931 69.4665 845.44 68.7994C842.372 64.6328 839.14 60.6768 835.76 56.931C835.205 56.316 835.254 55.3675 835.869 54.8125ZM604.486 55.9081C605.103 56.4613 605.154 57.4096 604.601 58.0263C601.23 61.7838 598.006 65.7471 594.945 69.9164C594.455 70.5842 593.516 70.7281 592.848 70.2378C592.18 69.7476 592.037 68.8088 592.527 68.141C595.646 63.8927 598.932 59.8533 602.368 56.0229C602.921 55.4062 603.869 55.3548 604.486 55.9081ZM283.168 57.1579C283.784 56.6036 284.732 56.6533 285.287 57.2689C288.716 61.0779 291.996 65.0992 295.11 69.3329C295.601 70.0003 295.457 70.9392 294.79 71.43C294.123 71.9208 293.184 71.7776 292.693 71.1103C289.638 66.9563 286.421 63.0117 283.057 59.2763C282.503 58.6607 282.553 57.7122 283.168 57.1579ZM53.1265 58.8126C53.7501 59.358 53.8134 60.3057 53.268 60.9292C49.9586 64.7127 46.7984 68.7031 43.8036 72.9006C43.3224 73.575 42.3857 73.7316 41.7113 73.2504C41.037 72.7693 40.8803 71.8326 41.3615 71.1582C44.4137 66.8801 47.6354 62.812 51.0099 58.9541C51.5553 58.3306 52.5029 58.2672 53.1265 58.8126ZM1411.68 73.6441C1412.38 73.2051 1413.31 73.4186 1413.74 74.1212C1415.12 76.3228 1416.46 78.5734 1417.75 80.8731L1421.87 88.2173C1422.28 88.9395 1422.02 89.854 1421.3 90.2598C1420.58 90.6656 1419.66 90.4091 1419.26 89.6869L1415.13 82.3427C1413.86 80.0835 1412.55 77.873 1411.2 75.7111C1410.76 75.0086 1410.97 74.0832 1411.68 73.6441ZM1141.43 77.8854C1142.14 78.3099 1142.38 79.2307 1141.95 79.9421C1140.65 82.1322 1139.38 84.3687 1138.16 86.6516C1136.91 88.9701 1135.63 91.2412 1134.3 93.4649C1133.88 94.1762 1132.96 94.4085 1132.24 93.9838C1131.53 93.5591 1131.3 92.6382 1131.72 91.9269C1133.03 89.7431 1134.29 87.5124 1135.51 85.2348C1136.76 82.9114 1138.05 80.6347 1139.38 78.405C1139.8 77.6935 1140.72 77.4609 1141.43 77.8854ZM854.409 79.4632C855.121 79.0383 856.042 79.2702 856.467 79.9813C857.794 82.2029 859.08 84.473 860.323 86.7915C861.543 89.0704 862.807 91.301 864.112 93.4833C864.537 94.1943 864.305 95.1154 863.594 95.5405C862.883 95.9656 861.962 95.7338 861.537 95.0228C860.208 92.8 858.921 90.5285 857.678 88.2083C856.458 85.931 855.195 83.7016 853.891 81.5203C853.466 80.8092 853.698 79.8882 854.409 79.4632ZM585.985 80.5901C586.696 81.0148 586.929 81.9357 586.504 82.647C585.201 84.8294 583.938 87.0588 582.719 89.3353C581.488 91.6326 580.214 93.883 578.898 96.0862C578.473 96.7975 577.552 97.0298 576.841 96.6051C576.13 96.1804 575.898 95.2595 576.322 94.5482C577.614 92.3849 578.865 90.175 580.074 87.9185C581.316 85.6012 582.601 83.3314 583.928 81.109C584.353 80.3977 585.274 80.1654 585.985 80.5901ZM301.626 81.7309C302.338 81.306 303.259 81.5381 303.683 82.2493C305.006 84.4633 306.287 86.7254 307.525 89.0356C308.734 91.2931 309.986 93.5029 311.278 95.6651C311.703 96.3762 311.471 97.2972 310.76 97.7222C310.049 98.1472 309.128 97.9153 308.703 97.2042C307.387 95.0016 306.112 92.751 304.88 90.4524C303.665 88.1832 302.407 85.9617 301.108 83.7879C300.683 83.0767 300.915 82.1557 301.626 81.7309ZM35.0238 83.6486C35.741 84.0632 35.9864 84.9807 35.5718 85.6979C34.3046 87.8901 33.0786 90.1295 31.8956 92.416L28.241 99.4792C27.8604 100.215 26.9553 100.503 26.2195 100.122C25.4837 99.7414 25.1959 98.8363 25.5766 98.1006L29.2311 91.0374C30.4355 88.7096 31.6839 86.4294 32.9745 84.1966C33.3891 83.4794 34.3066 83.234 35.0238 83.6486ZM1428.08 102.333C1428.81 101.927 1429.72 102.184 1430.13 102.906L1438.38 117.594C1438.79 118.316 1438.53 119.231 1437.81 119.637C1437.09 120.043 1436.17 119.786 1435.77 119.064L1427.51 104.375C1427.11 103.653 1427.36 102.739 1428.08 102.333ZM1125.37 104.344C1126.04 104.834 1126.19 105.773 1125.7 106.441C1122.58 110.691 1119.29 114.733 1115.85 118.567C1115.3 119.183 1114.35 119.235 1113.73 118.682C1113.12 118.129 1113.06 117.18 1113.62 116.564C1116.99 112.803 1120.22 108.837 1123.28 104.666C1123.77 103.998 1124.71 103.854 1125.37 104.344ZM870.475 105.891C871.142 105.4 872.081 105.542 872.573 106.209C875.645 110.376 878.882 114.332 882.267 118.077C882.823 118.691 882.775 119.64 882.16 120.195C881.546 120.751 880.597 120.703 880.042 120.088C876.59 116.27 873.289 112.237 870.158 107.989C869.666 107.322 869.808 106.383 870.475 105.891ZM570.052 106.846C570.72 107.336 570.864 108.275 570.373 108.943C567.281 113.154 564.024 117.159 560.617 120.957C560.064 121.573 559.115 121.625 558.499 121.071C557.882 120.518 557.831 119.57 558.384 118.953C561.725 115.229 564.921 111.3 567.955 107.167C568.445 106.5 569.384 106.356 570.052 106.846ZM317.558 107.956C318.225 107.465 319.164 107.607 319.656 108.275C322.697 112.405 325.901 116.326 329.251 120.039C329.806 120.654 329.757 121.602 329.142 122.157C328.527 122.712 327.578 122.664 327.023 122.049C323.607 118.262 320.34 114.263 317.24 110.053C316.749 109.386 316.891 108.447 317.558 107.956ZM20.2891 111.584C21.0248 111.965 21.3127 112.87 20.932 113.605L13.6229 127.732C13.2422 128.468 12.3372 128.755 11.6014 128.375C10.8656 127.994 10.5778 127.089 10.9585 126.353L18.2675 112.227C18.6482 111.491 19.5533 111.203 20.2891 111.584ZM1104.97 127.526C1105.53 128.137 1105.49 129.086 1104.88 129.645C1101.01 133.184 1096.99 136.497 1092.85 139.584C1092.18 140.079 1091.24 139.942 1090.75 139.278C1090.25 138.614 1090.39 137.674 1091.06 137.179C1095.12 134.151 1099.06 130.901 1102.85 127.43C1103.47 126.872 1104.41 126.914 1104.97 127.526ZM890.962 128.994C891.518 128.379 892.466 128.331 893.081 128.886C896.9 132.334 900.862 135.554 904.947 138.547C905.615 139.036 905.76 139.975 905.271 140.643C904.781 141.312 903.843 141.457 903.174 140.967C899.007 137.915 894.966 134.63 891.071 131.113C890.456 130.558 890.407 129.609 890.962 128.994ZM549.838 129.811C550.397 130.423 550.354 131.372 549.742 131.93C545.905 135.436 541.924 138.717 537.82 141.773C537.155 142.268 536.215 142.13 535.721 141.466C535.226 140.801 535.363 139.861 536.028 139.367C540.053 136.37 543.956 133.153 547.719 129.715C548.331 129.157 549.28 129.2 549.838 129.811ZM337.833 130.865C338.389 130.251 339.337 130.204 339.952 130.76C343.73 134.181 347.65 137.377 351.692 140.349C352.359 140.839 352.503 141.778 352.012 142.446C351.521 143.113 350.582 143.256 349.915 142.766C345.792 139.734 341.793 136.474 337.938 132.984C337.324 132.428 337.277 131.48 337.833 130.865ZM1444.59 131.71C1445.31 131.304 1446.23 131.56 1446.63 132.283L1454.89 146.971C1455.29 147.693 1455.04 148.608 1454.31 149.014C1453.59 149.419 1452.68 149.163 1452.27 148.441L1444.02 133.752C1443.61 133.03 1443.87 132.116 1444.59 131.71ZM5.67095 139.837C6.40673 140.217 6.69457 141.122 6.31388 141.858L-0.995171 155.984C-1.37587 156.72 -2.28094 157.008 -3.01672 156.627C-3.75249 156.247 -4.04034 155.341 -3.65965 154.606L3.64941 140.479C4.03011 139.744 4.93518 139.456 5.67095 139.837ZM1080.41 146.216C1080.83 146.926 1080.6 147.848 1079.89 148.274C1075.41 150.966 1070.82 153.42 1066.14 155.637C1065.39 155.992 1064.5 155.672 1064.14 154.924C1063.79 154.175 1064.11 153.281 1064.86 152.926C1069.45 150.751 1073.95 148.343 1078.35 145.703C1079.06 145.276 1079.98 145.506 1080.41 146.216ZM915.68 147.481C916.099 146.766 917.018 146.527 917.733 146.946C922.154 149.537 926.685 151.891 931.307 154.007C932.06 154.352 932.391 155.242 932.046 155.995C931.701 156.748 930.811 157.079 930.058 156.735C925.345 154.577 920.724 152.177 916.216 149.534C915.501 149.115 915.261 148.196 915.68 147.481ZM525.49 148.316C525.916 149.026 525.686 149.948 524.975 150.374C520.534 153.037 515.983 155.464 511.341 157.654C510.592 158.008 509.698 157.687 509.344 156.938C508.991 156.189 509.311 155.295 510.061 154.941C514.614 152.792 519.077 150.412 523.432 147.801C524.143 147.375 525.064 147.605 525.49 148.316ZM362.289 149.224C362.71 148.51 363.629 148.272 364.343 148.693C368.717 151.27 373.201 153.611 377.774 155.717C378.526 156.064 378.855 156.955 378.509 157.707C378.162 158.46 377.271 158.789 376.519 158.442C371.855 156.294 367.282 153.906 362.82 151.278C362.106 150.857 361.869 149.938 362.289 149.224ZM1052.64 159.697C1052.92 160.477 1052.51 161.336 1051.73 161.616C1046.82 163.376 1041.84 164.893 1036.81 166.166C1036.01 166.369 1035.19 165.883 1034.99 165.08C1034.79 164.277 1035.27 163.461 1036.08 163.258C1041.02 162.008 1045.9 160.52 1050.72 158.792C1051.5 158.512 1052.36 158.917 1052.64 159.697ZM943.617 160.608C943.885 159.824 944.738 159.407 945.521 159.675C950.359 161.33 955.268 162.743 960.229 163.912C961.035 164.103 961.534 164.91 961.344 165.717C961.154 166.523 960.346 167.023 959.54 166.832C954.484 165.64 949.481 164.201 944.55 162.513C943.766 162.245 943.348 161.392 943.617 160.608ZM497.964 161.641C498.242 162.421 497.836 163.279 497.056 163.558C492.191 165.294 487.254 166.789 482.266 168.041C481.462 168.243 480.648 167.755 480.446 166.951C480.244 166.148 480.732 165.333 481.536 165.131C486.431 163.903 491.274 162.436 496.047 160.732C496.827 160.454 497.685 160.861 497.964 161.641ZM1461.1 161.087C1461.82 160.681 1462.74 160.937 1463.14 161.66L1471.39 176.348C1471.8 177.07 1471.54 177.985 1470.82 178.391C1470.1 178.796 1469.18 178.54 1468.78 177.818L1460.53 163.129C1460.12 162.407 1460.38 161.492 1461.1 161.087ZM389.935 162.295C390.205 161.512 391.059 161.096 391.842 161.366C396.631 163.018 401.49 164.43 406.401 165.601C407.207 165.793 407.704 166.603 407.512 167.408C407.32 168.214 406.511 168.712 405.705 168.519C400.699 167.325 395.746 165.886 390.864 164.202C390.081 163.932 389.665 163.078 389.935 162.295ZM1022.78 167.552C1022.91 168.371 1022.34 169.137 1021.52 169.262C1016.38 170.05 1011.2 170.591 1006.01 170.885C1005.19 170.932 1004.48 170.299 1004.43 169.472C1004.38 168.645 1005.02 167.936 1005.84 167.889C1010.94 167.601 1016.02 167.07 1021.07 166.297C1021.89 166.171 1022.65 166.734 1022.78 167.552ZM973.593 167.984C973.704 167.163 974.46 166.588 975.281 166.699C980.341 167.385 985.432 167.827 990.533 168.025C991.361 168.058 992.006 168.755 991.974 169.582C991.942 170.41 991.244 171.055 990.417 171.023C985.22 170.821 980.033 170.371 974.878 169.672C974.057 169.561 973.482 168.805 973.593 167.984ZM-8.94715 168.089C-8.21138 168.47 -7.92353 169.375 -8.30423 170.111L-15.6133 184.237C-15.994 184.973 -16.8991 185.261 -17.6348 184.88C-18.3706 184.499 -18.6584 183.594 -18.2778 182.858L-10.9687 168.732C-10.588 167.996 -9.68293 167.708 -8.94715 168.089ZM468.372 169.371C468.496 170.19 467.932 170.954 467.113 171.078C462.013 171.847 456.882 172.372 451.74 172.651C450.913 172.696 450.206 172.061 450.161 171.234C450.116 170.407 450.75 169.7 451.577 169.655C456.624 169.381 461.66 168.867 466.665 168.111C467.484 167.988 468.248 168.552 468.372 169.371ZM419.614 169.681C419.727 168.86 420.484 168.287 421.305 168.4C426.316 169.093 431.358 169.544 436.411 169.753C437.238 169.787 437.882 170.486 437.847 171.313C437.813 172.141 437.114 172.784 436.287 172.75C431.139 172.537 426.001 172.078 420.894 171.372C420.074 171.259 419.5 170.502 419.614 169.681ZM1477.61 190.464C1478.33 190.058 1479.24 190.314 1479.65 191.036L1487.9 205.725C1488.31 206.447 1488.05 207.362 1487.33 207.767C1486.61 208.173 1485.69 207.917 1485.29 207.194L1477.03 192.506C1476.63 191.784 1476.88 190.869 1477.61 190.464ZM-23.5653 196.342C-22.8295 196.722 -22.5416 197.627 -22.9223 198.363L-30.2314 212.489C-30.6121 213.225 -31.5172 213.513 -32.2529 213.132C-32.9887 212.752 -33.2766 211.847 -32.8959 211.111L-25.5868 196.985C-25.2061 196.249 -24.301 195.961 -23.5653 196.342ZM1494.11 219.84C1494.83 219.435 1495.75 219.691 1496.15 220.413L1504.41 235.102C1504.81 235.824 1504.56 236.738 1503.83 237.144C1503.11 237.55 1502.2 237.294 1501.79 236.571L1493.54 221.883C1493.13 221.161 1493.39 220.246 1494.11 219.84ZM-38.1834 224.594C-37.4476 224.975 -37.1598 225.88 -37.5405 226.616L-44.8495 240.742C-45.2302 241.478 -46.1353 241.766 -46.8711 241.385C-47.6068 241.004 -47.8947 240.099 -47.514 239.363L-40.2049 225.237C-39.8242 224.501 -38.9192 224.214 -38.1834 224.594ZM1510.62 249.217C1511.34 248.812 1512.26 249.068 1512.66 249.79L1520.91 264.479C1521.32 265.201 1521.06 266.115 1520.34 266.521C1519.62 266.927 1518.7 266.671 1518.3 265.948L1510.05 251.26C1509.64 250.538 1509.9 249.623 1510.62 249.217ZM-52.8015 252.847C-52.0657 253.228 -51.7779 254.133 -52.1586 254.868L-59.4676 268.995C-59.8483 269.73 -60.7534 270.018 -61.4892 269.638C-62.2249 269.257 -62.5128 268.352 -62.1321 267.616L-54.823 253.49C-54.4423 252.754 -53.5373 252.466 -52.8015 252.847ZM1527.13 278.594C1527.85 278.188 1528.76 278.445 1529.17 279.167L1537.42 293.856C1537.83 294.578 1537.57 295.492 1536.85 295.898C1536.13 296.304 1535.21 296.047 1534.81 295.325L1526.55 280.637C1526.15 279.915 1526.4 279 1527.13 278.594ZM-67.4196 281.099C-66.6838 281.48 -66.396 282.385 -66.7767 283.121L-74.0857 297.247C-74.4664 297.983 -75.3715 298.271 -76.1073 297.89C-76.8431 297.509 -77.1309 296.604 -76.7502 295.869L-69.4412 281.742C-69.0605 281.007 -68.1554 280.719 -67.4196 281.099ZM1543.63 307.971C1544.35 307.565 1545.27 307.822 1545.67 308.544L1553.93 323.232C1554.33 323.955 1554.08 324.869 1553.36 325.275C1552.63 325.681 1551.72 325.424 1551.31 324.702L1543.06 310.014C1542.65 309.291 1542.91 308.377 1543.63 307.971ZM-82.0377 309.352C-81.302 309.733 -81.0141 310.638 -81.3948 311.374L-88.7039 325.5C-89.0846 326.236 -89.9896 326.523 -90.7254 326.143C-91.4612 325.762 -91.749 324.857 -91.3683 324.121L-84.0593 309.995C-83.6786 309.259 -82.7735 308.971 -82.0377 309.352ZM1560.14 337.348C1560.86 336.942 1561.78 337.199 1562.18 337.921L1566.31 345.265C1566.71 345.987 1566.46 346.902 1565.74 347.308C1565.01 347.713 1564.1 347.457 1563.69 346.735L1559.57 339.391C1559.16 338.668 1559.42 337.754 1560.14 337.348ZM-96.6558 337.605C-95.9201 337.985 -95.6322 338.89 -96.0129 339.626L-99.6675 346.689C-100.048 347.425 -100.953 347.713 -101.689 347.332C-102.425 346.951 -102.713 346.046 -102.332 345.311L-98.6774 338.247C-98.2967 337.512 -97.3916 337.224 -96.6558 337.605Z" fill="url(#paint0_linear_223_2434)"/>
<path d="M302 93L310 96.5L312 88" stroke="#DADADA" stroke-width="3" stroke-linecap="round" stroke-linejoin="round"/>
<path d="M1234.67 13.343L1239 5.75846L1231.15 2.00007" stroke="#DADADA" stroke-width="3" stroke-linecap="round" stroke-linejoin="round"/>
<path d="M605.814 63.3738L605.665 54.643L597 55.4135" stroke="#DADADA" stroke-width="3" stroke-linecap="round" stroke-linejoin="round"/>
<path d="M874.305 119.543L882.962 120.684L883.478 112" stroke="#DADADA" stroke-width="3" stroke-linecap="round" stroke-linejoin="round"/>
</g>
<defs>
<linearGradient id="paint0_linear_223_2434" x1="1442.5" y1="58.9997" x2="0.50046" y2="58.9997" gradientUnits="userSpaceOnUse">
<stop stop-color="#D9D9D9" stop-opacity="0"/>
<stop offset="0.09375" stop-color="#D9D9D9"/>
<stop offset="0.875" stop-color="#D9D9D9"/>
<stop offset="1" stop-color="#D9D9D9" stop-opacity="0"/>
</linearGradient>
<clipPath id="clip0_223_2434">
<rect width="1440" height="186" fill="white"/>
</clipPath>
</defs>
</svg>
