<svg width="4" height="8" viewBox="0 0 4 8" fill="none" xmlns="http://www.w3.org/2000/svg">
<path opacity="0.4" d="M3.84918 3.59561L1.19357 0.670715C1.09578 0.55689 0.973655 0.5 0.826965 0.5C0.680275 0.5 0.558155 0.556953 0.460358 0.670715L0.150787 1.00774C0.0502924 1.11857 6.10352e-05 1.25328 6.10352e-05 1.41203C6.10352e-05 1.56778 0.0502784 1.70411 0.150787 1.82089L2.13034 4.00002L0.150726 6.18362C0.0502603 6.29446 0 6.42917 0 6.58794C0 6.74367 0.0502463 6.88005 0.150726 6.99678L0.460297 7.33376C0.560778 7.44459 0.683025 7.5 0.826904 7.5C0.97084 7.5 1.09306 7.44459 1.19351 7.33376L3.84918 4.40886C3.94971 4.29205 4 4.15575 4 4C4.00001 3.84125 3.94971 3.70645 3.84918 3.59561Z" fill="#8860D0"/>
</svg>
