<svg width="5" height="10" viewBox="0 0 5 10" fill="none" xmlns="http://www.w3.org/2000/svg">
<path d="M0.308236 1.02247C0.191066 1.13967 0.125244 1.29862 0.125244 1.46434C0.125244 1.63007 0.191066 1.78901 0.308236 1.90622L3.40199 4.99997L0.308235 8.09372C0.194387 8.2116 0.13139 8.36947 0.132814 8.53335C0.134238 8.69722 0.199969 8.85398 0.315849 8.96986C0.431729 9.08574 0.588486 9.15147 0.752359 9.15289C0.916232 9.15431 1.07411 9.09132 1.19199 8.97747L4.72761 5.44184C4.84478 5.32464 4.9106 5.1657 4.9106 4.99997C4.9106 4.83424 4.84478 4.6753 4.72761 4.55809L1.19199 1.02247C1.07478 0.9053 0.915838 0.839478 0.750111 0.839478C0.584383 0.839478 0.425441 0.9053 0.308236 1.02247Z" fill="#8860D0"/>
</svg>
