<svg width="13" height="22" viewBox="0 0 13 22" fill="none" xmlns="http://www.w3.org/2000/svg">
<path d="M1.20876 1.23C0.911578 1.52728 0.744629 1.93041 0.744629 2.35076C0.744629 2.7711 0.911578 3.17424 1.20876 3.47151L9.05564 11.3184L1.20876 19.1653C0.919999 19.4642 0.760217 19.8647 0.763829 20.2803C0.76744 20.696 0.934157 21.0935 1.22807 21.3875C1.52199 21.6814 1.91958 21.8481 2.33522 21.8517C2.75086 21.8553 3.15129 21.6955 3.45027 21.4068L12.4179 12.4391C12.7151 12.1419 12.882 11.7387 12.882 11.3184C12.882 10.898 12.7151 10.4949 12.4179 10.1976L3.45027 1.23C3.153 0.932818 2.74986 0.765869 2.32952 0.765869C1.90917 0.765869 1.50604 0.932818 1.20876 1.23Z" fill="white"/>
</svg>
