<svg width="32" height="32" viewBox="0 0 32 32" fill="none" xmlns="http://www.w3.org/2000/svg">
<path d="M15.9957 21.3356C13.0578 21.3356 10.6602 18.938 10.6602 16C10.6602 13.062 13.0578 10.6644 15.9957 10.6644C18.9336 10.6644 21.3312 13.062 21.3312 16C21.3312 18.938 18.9336 21.3356 15.9957 21.3356ZM31.9982 16C31.9982 18.2095 32.0182 20.399 31.8941 22.6045C31.7701 25.1662 31.1857 27.4397 29.3125 29.313C27.4352 31.1903 25.1657 31.7707 22.604 31.8947C20.3946 32.0188 18.2052 31.9988 15.9997 31.9988C13.7902 31.9988 11.6008 32.0188 9.39536 31.8947C6.83368 31.7707 4.56019 31.1863 2.68696 29.313C0.809722 27.4357 0.22934 25.1662 0.105259 22.6045C-0.0188226 20.395 0.00119056 18.2055 0.00119056 16C0.00119056 13.7945 -0.0188226 11.601 0.105259 9.39554C0.22934 6.83381 0.813725 4.56027 2.68696 2.68701C4.56419 0.809738 6.83368 0.229345 9.39536 0.105261C11.6048 -0.0188217 13.7943 0.00119019 15.9997 0.00119019C18.2092 0.00119019 20.3986 -0.0188217 22.604 0.105261C25.1657 0.229345 27.4392 0.81374 29.3125 2.68701C31.1897 4.56427 31.7701 6.83381 31.8941 9.39554C32.0222 11.601 31.9982 13.7905 31.9982 16ZM15.9957 7.79045C11.4527 7.79045 7.78631 11.4569 7.78631 16C7.78631 20.5431 11.4527 24.2095 15.9957 24.2095C20.5387 24.2095 24.2051 20.5431 24.2051 16C24.2051 11.4569 20.5387 7.79045 15.9957 7.79045ZM24.5413 22.6285C23.4806 22.6285 22.6241 23.4851 22.6241 24.5458C22.6241 25.6065 23.4806 26.4631 24.5413 26.4631C25.602 26.4631 26.4586 25.6065 26.4586 24.5458C26.4589 24.2939 26.4095 24.0444 26.3133 23.8117C26.217 23.5789 26.0758 23.3674 25.8977 23.1893C25.7196 23.0112 25.5082 22.87 25.2754 22.7738C25.0426 22.6775 24.7932 22.6282 24.5413 22.6285Z" fill="white"/>
</svg>
