<svg width="54" height="32" viewBox="0 0 54 32" fill="none" xmlns="http://www.w3.org/2000/svg">
<path fill-rule="evenodd" clip-rule="evenodd" d="M52.7614 2.16686C53.1349 0.918857 52.7614 0 50.9727 0H45.0666C43.5636 0 42.8706 0.793143 42.4949 1.66857C42.4949 1.66857 39.4912 8.97371 35.2365 13.7189C33.8595 15.0949 33.2341 15.5314 32.4826 15.5314C32.1068 15.5314 31.5421 15.0949 31.5421 13.8446V2.16686C31.5421 0.667429 31.1281 0 29.8771 0H20.5893C19.6511 0 19.0863 0.694857 19.0863 1.35543C19.0863 2.77486 21.2148 3.104 21.4331 7.09943V15.7806C21.4331 17.6846 21.0888 18.0297 20.3373 18.0297C18.3349 18.0297 13.4637 10.6903 10.5725 2.29257C10.0123 0.658285 9.4453 0 7.93558 0H2.02496C0.337493 0 0 0.793143 0 1.66857C0 3.22743 2.00246 10.9714 9.32605 21.2137C14.2085 28.208 21.0821 32 27.3437 32C31.0988 32 31.5623 31.1589 31.5623 29.7074V24.4206C31.5623 22.736 31.9178 22.4 33.1081 22.4C33.9855 22.4 35.4863 22.8389 38.9917 26.2103C42.9966 30.208 43.6558 32 45.9103 32H51.8164C53.5039 32 54.3499 31.1589 53.8639 29.4949C53.3284 27.84 51.4159 25.4377 48.8802 22.5874C47.5033 20.9646 45.4378 19.216 44.8101 18.3406C43.9348 17.2183 44.1846 16.7177 44.8101 15.7189C44.8101 15.7189 52.0099 5.60229 52.7591 2.16686H52.7614Z" fill="white"/>
</svg>
