<svg width="16" height="16" viewBox="0 0 16 16" fill="none" xmlns="http://www.w3.org/2000/svg">
<path d="M0.727131 6.17191C0.725127 6.29476 0.76051 6.41531 0.828588 6.51759C0.896666 6.61986 0.994224 6.69903 1.10833 6.7446L6.92687 9.07232L9.25465 14.8913C9.29961 15.0039 9.37729 15.1004 9.47766 15.1683C9.57802 15.2363 9.69645 15.2726 9.81765 15.2725H9.82735C9.95009 15.2706 10.0694 15.2314 10.1693 15.1602C10.2693 15.089 10.3454 14.9891 10.3873 14.8737L15.2356 1.54131C15.2753 1.43285 15.2832 1.31531 15.2583 1.20252C15.2334 1.08974 15.1768 0.986416 15.0952 0.904717C15.0135 0.823018 14.9102 0.766348 14.7975 0.741381C14.6847 0.716413 14.5672 0.724189 14.4587 0.763791L1.1259 5.61195C1.01049 5.65402 0.910576 5.73015 0.839371 5.83024C0.768166 5.93034 0.729027 6.04909 0.727131 6.17191Z" fill="white"/>
</svg>
