<svg width="14" height="14" viewBox="0 0 14 14" fill="none" xmlns="http://www.w3.org/2000/svg">
<path d="M2.33333 1.27295C1.71449 1.27295 1.121 1.51431 0.683417 1.94394C0.245833 2.37357 0 2.95627 0 3.56386V3.79409L7 7.49506L14 3.79524V3.56386C14 2.95627 13.7542 2.37357 13.3166 1.94394C12.879 1.51431 12.2855 1.27295 11.6667 1.27295H2.33333ZM14 5.09533L7.2765 8.64968C7.19152 8.69459 7.09651 8.7181 7 8.7181C6.90349 8.7181 6.80848 8.69459 6.7235 8.64968L0 5.09533V10.4366C0 11.0442 0.245833 11.6269 0.683417 12.0565C1.121 12.4861 1.71449 12.7275 2.33333 12.7275H11.6667C12.2855 12.7275 12.879 12.4861 13.3166 12.0565C13.7542 11.6269 14 11.0442 14 10.4366V5.09533Z" fill="white"/>
</svg>
