<svg width="40" height="40" viewBox="0 0 40 40" fill="none" xmlns="http://www.w3.org/2000/svg">
<path fill-rule="evenodd" clip-rule="evenodd" d="M11.6392 16.0838C11.6392 15.6163 12.0182 15.2373 12.4858 15.2373H17.6663C18.1338 15.2373 18.5128 15.6163 18.5128 16.0838V22.9137L26.4479 36.8274C26.5974 37.0894 26.5961 37.4112 26.4446 37.672C26.2931 37.9328 26.0142 38.0933 25.7126 38.0933H4.54964C4.24891 38.0933 3.97075 37.9338 3.81892 37.6742C3.66709 37.4146 3.6644 37.0939 3.81184 36.8318L11.6392 22.9164V16.0838ZM13.3323 16.9304V23.1382C13.3323 23.2835 13.2948 23.4265 13.2236 23.5532L5.99706 36.4003H24.2553L16.9309 23.5575C16.8581 23.4298 16.8197 23.2852 16.8197 23.1382V16.9304H13.3323Z" fill="#68CCF3"/>
<path fill-rule="evenodd" clip-rule="evenodd" d="M9.34658 15.8017C9.34658 15.3342 9.72558 14.9552 10.1931 14.9552H20.0691C20.5367 14.9552 20.9157 15.3342 20.9157 15.8017C20.9157 16.2692 20.5367 16.6482 20.0691 16.6482H10.1931C9.72558 16.6482 9.34658 16.2692 9.34658 15.8017Z" fill="#68CCF3"/>
<path fill-rule="evenodd" clip-rule="evenodd" d="M8.78223 28.4994C8.78223 28.0319 9.13454 27.6529 9.56914 27.6529H20.6931C21.1277 27.6529 21.48 28.0319 21.48 28.4994C21.48 28.967 21.1277 29.346 20.6931 29.346H9.56914C9.13454 29.346 8.78223 28.967 8.78223 28.4994Z" fill="#68CCF3"/>
<path fill-rule="evenodd" clip-rule="evenodd" d="M20.7344 12.7879C20.5228 13.2048 20.6893 13.7143 21.1062 13.9259C21.5231 14.1374 22.0326 13.971 22.2442 13.5541L22.6272 12.7992L33.0698 18.0984C34.8069 18.9799 36.9297 18.2863 37.8113 16.5491C38.6928 14.812 37.9992 12.6892 36.2621 11.8077L25.8195 6.50849L26.2026 5.75361C26.4141 5.3367 26.2477 4.82722 25.8308 4.61566C25.4138 4.40409 24.9044 4.57056 24.6928 4.98747L20.7344 12.7879ZM25.0534 8.01826L23.3934 11.2894L33.8359 16.5886C34.7392 17.047 35.8431 16.6863 36.3015 15.783C36.7599 14.8797 36.3992 13.7758 35.4959 13.3174L25.0534 8.01826Z" fill="#68CCF3"/>
<path fill-rule="evenodd" clip-rule="evenodd" d="M34.5558 11.2963C34.7065 11.7388 34.4699 12.2198 34.0273 12.3704L27.3962 14.6278C26.9536 14.7785 26.4727 14.5418 26.3221 14.0993C26.1714 13.6567 26.408 13.1758 26.8506 13.0251L33.4817 10.7677C33.9243 10.6171 34.4052 10.8537 34.5558 11.2963Z" fill="#68CCF3"/>
<path fill-rule="evenodd" clip-rule="evenodd" d="M10.052 6.48997C10.5975 6.48997 11.0396 6.04781 11.0396 5.50237C11.0396 4.95693 10.5975 4.51476 10.052 4.51476C9.50657 4.51476 9.06441 4.95693 9.06441 5.50237C9.06441 6.04781 9.50657 6.48997 10.052 6.48997ZM10.052 8.18301C11.5325 8.18301 12.7327 6.98285 12.7327 5.50237C12.7327 4.02189 11.5325 2.82173 10.052 2.82173C8.57154 2.82173 7.37137 4.02189 7.37137 5.50237C7.37137 6.98285 8.57154 8.18301 10.052 8.18301Z" fill="#68CCF3"/>
<path fill-rule="evenodd" clip-rule="evenodd" d="M15.4133 11.8513C15.9587 11.8513 16.4009 11.4091 16.4009 10.8637C16.4009 10.3182 15.9587 9.87605 15.4133 9.87605C14.8679 9.87605 14.4257 10.3182 14.4257 10.8637C14.4257 11.4091 14.8679 11.8513 15.4133 11.8513ZM15.4133 13.5443C16.8938 13.5443 18.0939 12.3441 18.0939 10.8637C18.0939 9.38317 16.8938 8.18301 15.4133 8.18301C13.9328 8.18301 12.7327 9.38317 12.7327 10.8637C12.7327 12.3441 13.9328 13.5443 15.4133 13.5443Z" fill="#68CCF3"/>
<path fill-rule="evenodd" clip-rule="evenodd" d="M20.7746 3.66825C21.32 3.66825 21.7622 3.22608 21.7622 2.68064C21.7622 2.1352 21.32 1.69304 20.7746 1.69304C20.2291 1.69304 19.787 2.1352 19.787 2.68064C19.787 3.22608 20.2291 3.66825 20.7746 3.66825ZM20.7746 5.36128C22.2551 5.36128 23.4552 4.16112 23.4552 2.68064C23.4552 1.20016 22.2551 0 20.7746 0C19.2941 0 18.0939 1.20016 18.0939 2.68064C18.0939 4.16112 19.2941 5.36128 20.7746 5.36128Z" fill="#68CCF3"/>
</svg>
