<svg width="40" height="40" viewBox="0 0 40 40" fill="none" xmlns="http://www.w3.org/2000/svg">
<path fill-rule="evenodd" clip-rule="evenodd" d="M11 23.5H4C2.61929 23.5 1.5 24.6193 1.5 26V38.5H13.5V26C13.5 24.6193 12.3807 23.5 11 23.5ZM4 22C1.79086 22 0 23.7909 0 26V39C0 39.5523 0.447715 40 1 40H14C14.5523 40 15 39.5523 15 39V26C15 23.7909 13.2091 22 11 22H4Z" fill="#D9D9D9"/>
<path fill-rule="evenodd" clip-rule="evenodd" d="M21 38.5L23 38.5C24.3807 38.5 25.5 37.3807 25.5 36L25.5 26.5L18.5 26.5L18.5 36C18.5 37.3807 19.6193 38.5 21 38.5ZM23 40C25.2091 40 27 38.2091 27 36L27 26C27 25.4477 26.5523 25 26 25L18 25C17.4477 25 17 25.4477 17 26L17 36C17 38.2091 18.7909 40 21 40L23 40Z" fill="#D9D9D9"/>
<path fill-rule="evenodd" clip-rule="evenodd" d="M22 0.0263672C22.4142 0.0263671 22.75 0.362154 22.75 0.776367L22.75 25C22.75 25.4142 22.4142 25.75 22 25.75C21.5858 25.75 21.25 25.4142 21.25 25L21.25 0.776367C21.25 0.362154 21.5858 0.0263672 22 0.0263672Z" fill="#D9D9D9"/>
<path d="M30 21.75H39C39.1381 21.75 39.25 21.8619 39.25 22V39C39.25 39.1381 39.1381 39.25 39 39.25H30C29.8619 39.25 29.75 39.1381 29.75 39V22C29.75 21.8619 29.8619 21.75 30 21.75Z" stroke="#D9D9D9" stroke-width="1.5"/>
<path d="M31 18.75H38C38.1381 18.75 38.25 18.8619 38.25 19V21.463C38.25 21.6011 38.1381 21.713 38 21.713H31C30.8619 21.713 30.75 21.6011 30.75 21.463V19C30.75 18.8619 30.8619 18.75 31 18.75Z" stroke="#D9D9D9" stroke-width="1.5"/>
<mask id="path-6-inside-1_382_2658" fill="white">
<path d="M31 12.088C31 11.5147 31.246 10.969 31.6756 10.5894L36.3378 6.46902C36.9833 5.89853 38 6.35684 38 7.21833V18.4349C38 18.9872 37.5523 19.4349 37 19.4349H32C31.4477 19.4349 31 18.9872 31 18.4349V12.088Z"/>
</mask>
<path d="M36.3378 6.46902L35.3445 5.34506L36.3378 6.46902ZM32.6689 11.7133L37.3311 7.59299L35.3445 5.34506L30.6822 9.46539L32.6689 11.7133ZM36.5 7.21833V18.4349H39.5V7.21833H36.5ZM37 17.9349H32V20.9349H37V17.9349ZM32.5 18.4349V12.088H29.5V18.4349H32.5ZM32 17.9349C32.2761 17.9349 32.5 18.1588 32.5 18.4349H29.5C29.5 19.8156 30.6193 20.9349 32 20.9349V17.9349ZM36.5 18.4349C36.5 18.1588 36.7239 17.9349 37 17.9349V20.9349C38.3807 20.9349 39.5 19.8156 39.5 18.4349H36.5ZM37.3311 7.59299C37.0083 7.87823 36.5 7.64908 36.5 7.21833H39.5C39.5 5.06459 36.9583 3.91882 35.3445 5.34506L37.3311 7.59299ZM30.6822 9.46539C29.9305 10.1298 29.5 11.0847 29.5 12.088H32.5C32.5 11.9447 32.5615 11.8082 32.6689 11.7133L30.6822 9.46539Z" fill="#D9D9D9" mask="url(#path-6-inside-1_382_2658)"/>
<path fill-rule="evenodd" clip-rule="evenodd" d="M9 8.5H6C5.72386 8.5 5.5 8.72386 5.5 9V21.9883H9.5V9C9.5 8.72386 9.27614 8.5 9 8.5ZM6 7C4.89543 7 4 7.89543 4 9V23.4883H11V9C11 7.89543 10.1046 7 9 7H6Z" fill="#D9D9D9"/>
<path fill-rule="evenodd" clip-rule="evenodd" d="M5.67082 24.6646C5.85606 25.0351 5.70589 25.4856 5.33541 25.6708L4.99377 25.8416C4.23151 26.2228 3.75 27.0018 3.75 27.8541V36C3.75 36.4142 3.41421 36.75 3 36.75C2.58579 36.75 2.25 36.4142 2.25 36V27.8541C2.25 26.4337 3.05251 25.1352 4.32295 24.5L4.66459 24.3292C5.03507 24.1439 5.48558 24.2941 5.67082 24.6646Z" fill="#D9D9D9"/>
<path fill-rule="evenodd" clip-rule="evenodd" d="M19.25 2C19.25 1.58579 19.5858 1.25 20 1.25H24C24.4142 1.25 24.75 1.58579 24.75 2C24.75 2.41421 24.4142 2.75 24 2.75H20C19.5858 2.75 19.25 2.41421 19.25 2Z" fill="#D9D9D9"/>
<path fill-rule="evenodd" clip-rule="evenodd" d="M18.25 4.5C18.25 4.08579 18.5858 3.75 19 3.75H25C25.4142 3.75 25.75 4.08579 25.75 4.5C25.75 4.91421 25.4142 5.25 25 5.25H19C18.5858 5.25 18.25 4.91421 18.25 4.5Z" fill="#D9D9D9"/>
<path fill-rule="evenodd" clip-rule="evenodd" d="M18.25 7C18.25 6.58579 18.5858 6.25 19 6.25H25C25.4142 6.25 25.75 6.58579 25.75 7C25.75 7.41421 25.4142 7.75 25 7.75H19C18.5858 7.75 18.25 7.41421 18.25 7Z" fill="#D9D9D9"/>
<path fill-rule="evenodd" clip-rule="evenodd" d="M18.25 9.5C18.25 9.08579 18.5858 8.75 19 8.75H25C25.4142 8.75 25.75 9.08579 25.75 9.5C25.75 9.91421 25.4142 10.25 25 10.25H19C18.5858 10.25 18.25 9.91421 18.25 9.5Z" fill="#D9D9D9"/>
<path fill-rule="evenodd" clip-rule="evenodd" d="M18.25 12C18.25 11.5858 18.5858 11.25 19 11.25H25C25.4142 11.25 25.75 11.5858 25.75 12C25.75 12.4142 25.4142 12.75 25 12.75H19C18.5858 12.75 18.25 12.4142 18.25 12Z" fill="#D9D9D9"/>
<path fill-rule="evenodd" clip-rule="evenodd" d="M19.25 14.5C19.25 14.0858 19.5858 13.75 20 13.75H24C24.4142 13.75 24.75 14.0858 24.75 14.5C24.75 14.9142 24.4142 15.25 24 15.25H20C19.5858 15.25 19.25 14.9142 19.25 14.5Z" fill="#D9D9D9"/>
</svg>
