<svg width="40" height="40" viewBox="0 0 40 40" fill="none" xmlns="http://www.w3.org/2000/svg">
<path d="M4.21094 30.8772H17.5443V36.4912C17.5443 36.8788 17.2301 37.193 16.8425 37.193H4.91269C4.52512 37.193 4.21094 36.8788 4.21094 36.4912V30.8772Z" fill="white"/>
<path fill-rule="evenodd" clip-rule="evenodd" d="M16.1408 32.2807H5.61445V35.7895H16.1408V32.2807ZM4.21094 30.8772V36.4912C4.21094 36.8788 4.52512 37.193 4.91269 37.193H16.8425C17.2301 37.193 17.5443 36.8788 17.5443 36.4912V30.8772H4.21094Z" fill="#D9D9D9"/>
<path fill-rule="evenodd" clip-rule="evenodd" d="M0.701754 2.10522C0.314186 2.10522 0 2.41941 0 2.80698V7.71926C0 7.80163 0.01419 7.88068 0.0402588 7.9541L4.21053 32.2807H17.5439L21.0244 7.91702C21.0428 7.8543 21.0526 7.78793 21.0526 7.71926V2.80698C21.0526 2.41941 20.7384 2.10522 20.3509 2.10522H0.701754Z" fill="white"/>
<path fill-rule="evenodd" clip-rule="evenodd" d="M1.40351 7.59983L5.39391 30.8772H16.3266L19.6491 7.61952V3.50873H1.40351V7.59983ZM17.5439 32.2807H4.21053L0.0402588 7.9541C0.01419 7.88068 0 7.80163 0 7.71926V2.80698C0 2.41941 0.314186 2.10522 0.701754 2.10522H20.3509C20.7384 2.10522 21.0526 2.41941 21.0526 2.80698V7.71926C21.0526 7.78793 21.0428 7.8543 21.0244 7.91702L17.5439 32.2807Z" fill="#D9D9D9"/>
<path d="M14.0345 35.9056C14.0345 37.52 12.6207 37.1583 10.8766 37.1583C9.13259 37.1583 7.71875 37.52 7.71875 35.9056C7.71875 34.2912 9.13259 32.9824 10.8766 32.9824C12.6207 32.9824 14.0345 34.2912 14.0345 35.9056Z" fill="white"/>
<path fill-rule="evenodd" clip-rule="evenodd" d="M12.6221 36.0335C12.6221 36.0335 12.6223 36.0325 12.6228 36.0307C12.6224 36.0326 12.6221 36.0336 12.6221 36.0335ZM12.6249 35.7834C12.5052 35.7899 12.3477 35.7913 12.1381 35.7865C12.0372 35.7842 11.9167 35.78 11.7845 35.7755C11.5081 35.766 11.1809 35.7548 10.8766 35.7548C10.5724 35.7548 10.2452 35.766 9.96878 35.7755C9.83664 35.78 9.7161 35.7842 9.61522 35.7865C9.40555 35.7913 9.2481 35.7899 9.1284 35.7834C9.1984 35.0829 9.86268 34.3859 10.8766 34.3859C11.8906 34.3859 12.5549 35.0829 12.6249 35.7834ZM9.13051 36.0307C9.131 36.0325 9.1312 36.0335 9.13118 36.0335C9.13115 36.0336 9.13091 36.0326 9.13051 36.0307ZM11.6947 37.1769C13.0422 37.2237 14.0345 37.2581 14.0345 35.9056C14.0345 34.2912 12.6207 32.9824 10.8766 32.9824C9.13259 32.9824 7.71875 34.2912 7.71875 35.9056C7.71875 37.2581 8.71112 37.2237 10.0586 37.1769C10.3195 37.1678 10.5937 37.1583 10.8766 37.1583C11.1595 37.1583 11.4338 37.1678 11.6947 37.1769Z" fill="#D9D9D9"/>
<path d="M0.703125 7.01758H19.6505V8.42109H0.703125V7.01758Z" fill="#D9D9D9"/>
<path fill-rule="evenodd" clip-rule="evenodd" d="M0.703125 7.01758V8.42109H19.6505V7.01758H0.703125Z" fill="#D9D9D9"/>
<path d="M2.80469 8.42114L2.80469 2.10535L4.2082 2.10535L4.2082 8.42114L2.80469 8.42114Z" fill="#D9D9D9"/>
<path fill-rule="evenodd" clip-rule="evenodd" d="M2.80469 8.42114L4.2082 8.42114L4.2082 2.10535L2.80469 2.10535L2.80469 8.42114Z" fill="#D9D9D9"/>
<path d="M5.61328 8.42114L5.61328 2.10535L7.01679 2.10535L7.01679 8.42114L5.61328 8.42114Z" fill="#D9D9D9"/>
<path fill-rule="evenodd" clip-rule="evenodd" d="M5.61328 8.42114L7.01679 8.42114L7.01679 2.10535L5.61328 2.10535L5.61328 8.42114Z" fill="#D9D9D9"/>
<path fill-rule="evenodd" clip-rule="evenodd" d="M8.42188 8.42114L9.82538 8.42114L9.82538 2.10535L8.42187 2.10535L8.42188 8.42114Z" fill="#D9D9D9"/>
<path fill-rule="evenodd" clip-rule="evenodd" d="M11.2266 8.42114L12.6301 8.42114L12.6301 2.10535L11.2266 2.10535L11.2266 8.42114Z" fill="#D9D9D9"/>
<path d="M14.0352 8.42114L14.0352 2.10535L15.4387 2.10535L15.4387 8.42114L14.0352 8.42114Z" fill="#D9D9D9"/>
<path fill-rule="evenodd" clip-rule="evenodd" d="M14.0352 8.42114L15.4387 8.42114L15.4387 2.10535L14.0352 2.10535L14.0352 8.42114Z" fill="#D9D9D9"/>
<path d="M16.8438 8.42114L16.8437 2.10535L18.2473 2.10535L18.2473 8.42114L16.8438 8.42114Z" fill="#D9D9D9"/>
<path fill-rule="evenodd" clip-rule="evenodd" d="M16.8438 8.42114L18.2473 8.42114L18.2473 2.10535L16.8437 2.10535L16.8438 8.42114Z" fill="#D9D9D9"/>
<path d="M10.6127 22.4383C10.3518 22.4152 10.0448 22.469 9.83752 22.3538C9.19278 21.9854 8.89344 22.3461 8.5941 22.822C8.26405 23.3593 7.82655 23.5128 7.39673 23.2672C6.9669 23.0216 6.89015 22.4766 7.22019 21.9547C7.35067 21.7475 7.54256 21.5863 7.64234 21.3714C7.7805 21.0797 7.95703 20.7497 7.92633 20.4503C7.70375 18.0709 9.43072 15.776 11.7871 15.4843C12.4395 15.3999 13.1456 15.4306 13.775 15.5918C15.0184 15.9218 15.3024 16.3209 15.3331 17.6027C15.3869 20.2047 13.3145 22.4383 10.6127 22.4383ZM12.57 17.0578C10.5974 17.1729 9.57655 18.3779 9.57655 20.1817C9.57655 20.3429 9.76844 20.6192 9.9066 20.6422C11.6873 20.9799 13.161 20.2968 13.6292 18.3165C13.8594 17.3111 13.6215 17.0578 12.57 17.0578Z" fill="#D9D9D9"/>
<path fill-rule="evenodd" clip-rule="evenodd" d="M8.5941 22.822C8.89344 22.3461 9.19278 21.9854 9.83752 22.3538C9.97999 22.433 10.1696 22.4323 10.359 22.4317C10.4451 22.4314 10.5312 22.4311 10.6127 22.4383C13.3145 22.4383 15.3869 20.2047 15.3331 17.6027C15.3024 16.3209 15.0184 15.9218 13.775 15.5918C13.1456 15.4306 12.4395 15.3999 11.7871 15.4843C9.43072 15.776 7.70375 18.0709 7.92633 20.4503C7.95415 20.7215 7.81183 21.018 7.68208 21.2882C7.66863 21.3162 7.65532 21.344 7.64234 21.3714C7.58463 21.4957 7.4961 21.602 7.40647 21.7097C7.34113 21.7881 7.27521 21.8673 7.22019 21.9547C6.89015 22.4766 6.9669 23.0216 7.39673 23.2672C7.82655 23.5128 8.26405 23.3593 8.5941 22.822ZM8.27748 21.6698C8.18672 21.8641 8.06318 22.0166 7.98416 22.1124C7.96738 22.1328 7.95231 22.1509 7.93868 22.1674C7.87472 22.2445 7.84251 22.2834 7.81404 22.3286L7.81331 22.3298C7.71776 22.4809 7.71385 22.5832 7.71883 22.6198C7.72118 22.637 7.7253 22.6426 7.72541 22.6428C7.72581 22.6434 7.72672 22.6447 7.72892 22.6467C7.73115 22.6488 7.73599 22.6528 7.7449 22.6579C7.7627 22.6681 7.7757 22.6734 7.78379 22.6762C7.78783 22.6775 7.79079 22.6783 7.79274 22.6788C7.80618 22.6732 7.8869 22.6326 7.99615 22.4547L8.00006 22.4484L8.00009 22.4484C8.14003 22.2259 8.37631 21.8561 8.75413 21.6531C9.21141 21.4074 9.69843 21.4771 10.1493 21.7242C10.1638 21.726 10.1875 21.728 10.2249 21.7291C10.2636 21.7302 10.2999 21.7301 10.3472 21.7299C10.3663 21.7299 10.3871 21.7298 10.4107 21.7298C10.474 21.7298 10.5543 21.7304 10.6391 21.7364C12.9216 21.7219 14.6766 19.8311 14.6315 17.6184C14.6165 16.9925 14.5347 16.7756 14.4513 16.6665C14.3724 16.5633 14.1937 16.4292 13.598 16.2708C13.0643 16.1346 12.4497 16.1062 11.8771 16.1803L11.8733 16.1808L11.8733 16.1807C9.92147 16.4223 8.43636 18.3538 8.62481 20.3825C8.65502 20.6855 8.5787 20.9592 8.50621 21.1561C8.44659 21.3181 8.36738 21.4827 8.30921 21.6036C8.2977 21.6275 8.28702 21.6497 8.27748 21.6698ZM12.5495 16.356H12.57C12.8517 16.356 13.1276 16.372 13.3732 16.4302C13.6226 16.4893 13.9008 16.606 14.1129 16.8532C14.3291 17.1052 14.3997 17.4027 14.4099 17.6687C14.4198 17.9253 14.3758 18.1999 14.3132 18.4732L14.3121 18.478L14.3121 18.478C14.0426 19.6179 13.4594 20.4651 12.6117 20.9559C11.778 21.4387 10.7831 21.5219 9.78042 21.3325C9.57154 21.2949 9.42162 21.1851 9.34345 21.1189C9.25168 21.0413 9.1761 20.9526 9.11712 20.8694C9.02069 20.7332 8.8748 20.478 8.8748 20.1817C8.8748 19.1485 9.16907 18.2102 9.81898 17.5093C10.471 16.8063 11.406 16.4228 12.5291 16.3572L12.5495 16.356ZM9.9066 20.6422C9.76844 20.6192 9.57655 20.3429 9.57655 20.1817C9.57655 18.3779 10.5974 17.1729 12.57 17.0578C13.6215 17.0578 13.8594 17.3111 13.6292 18.3165C13.161 20.2968 11.6873 20.9799 9.9066 20.6422Z" fill="#D9D9D9"/>
<path fill-rule="evenodd" clip-rule="evenodd" d="M18.2461 26.7192C18.2749 26.5072 18.3031 26.2952 18.3305 26.0831V26.7278V35.5315C18.3305 36.6982 18.461 36.9822 19.597 37.128C21.8766 37.412 24.1638 37.673 26.4588 37.7651C28.7538 37.8572 31.0641 37.8034 33.3667 37.6883C35.2011 37.5962 37.0202 37.3583 38.8393 37.0973C39.7987 36.9592 39.9292 36.6982 39.9292 35.7464V19.4208C39.9292 18.2464 39.745 17.9855 38.5476 17.8013C38.4095 17.7795 38.2714 17.7574 38.1332 17.7353C36.9573 17.5476 35.7753 17.3589 34.5871 17.3177L34.4767 17.314C29.4247 17.1463 24.3723 16.9786 19.2669 17.8473C19.2911 17.6783 18.8527 17.4132 18.2461 17.1139V26.7192ZM19.5816 25.492C25.9445 26.2673 32.3075 26.2749 38.7088 25.492V35.9767C32.3382 36.7826 25.9753 36.7673 19.5816 35.9844V25.492ZM19.5498 20.9254C19.5465 20.5758 19.5432 20.2276 19.5432 19.8813C25.9599 20.6642 32.3075 20.6642 38.7165 19.8813C38.7165 20.1824 38.7177 20.4856 38.7189 20.7903L38.7189 20.7909V20.791V20.791C38.723 21.8142 38.7272 22.8549 38.6858 23.8956C38.6858 24.0414 38.256 24.264 38.0103 24.2947C37.786 24.3187 37.5616 24.3433 37.3372 24.3678L37.3371 24.3678C36.0569 24.5079 34.776 24.6481 33.4895 24.6938C31.0334 24.7782 28.5695 24.8243 26.1057 24.7629C24.7898 24.7318 23.4738 24.6063 22.1579 24.4808C21.5243 24.4203 20.8907 24.3599 20.257 24.31C19.7351 24.264 19.5049 24.0567 19.5279 23.4734C19.5659 22.6214 19.5578 21.7693 19.5498 20.9254V20.9254ZM36.836 18.8067C31.7088 18.3078 26.5739 18.3078 21.4467 18.8067C26.5739 19.3747 31.7011 19.367 36.836 18.8067ZM23.3734 34.7333H29.3142H35.4853C36.1914 34.7333 36.3833 34.5338 36.3833 33.8276V28.309C36.3833 27.6029 36.1914 27.3879 35.5006 27.3879C31.4403 27.3803 27.38 27.3803 23.3197 27.3879C22.5752 27.3879 22.4217 27.5568 22.4217 28.332V33.7893C22.4293 34.6105 22.5445 34.7333 23.3734 34.7333ZM35.1399 28.6928V33.4515H23.6881V28.6928H35.1399Z" fill="#D9D9D9"/>
</svg>
