<svg width="40" height="40" viewBox="0 0 40 40" fill="none" xmlns="http://www.w3.org/2000/svg">
<path fill-rule="evenodd" clip-rule="evenodd" d="M19.1908 13.3333H10.9894C8.53335 13.3333 6.59862 15.4268 6.79192 17.8752L8.317 37.193H21.8632L23.3883 17.8752C23.5816 15.4268 21.6469 13.3333 19.1908 13.3333ZM10.9894 11.9298C7.71467 11.9298 5.13504 14.7211 5.39276 17.9857L6.96889 37.95C6.99771 38.315 7.30232 38.5965 7.66847 38.5965H22.5117C22.8779 38.5965 23.1825 38.315 23.2113 37.95L24.7874 17.9857C25.0452 14.7211 22.4655 11.9298 19.1908 11.9298H10.9894Z" fill="#D9D9D9"/>
<path fill-rule="evenodd" clip-rule="evenodd" d="M18.7436 16.8421H11.4322C10.6183 16.8421 9.97511 17.5321 10.0321 18.3439L11.1089 33.6842H19.0668L20.1436 18.3439C20.2006 17.5321 19.5574 16.8421 18.7436 16.8421ZM11.4322 15.4386C9.80449 15.4386 8.51805 16.8185 8.63203 18.4422L9.75469 34.4351C9.78049 34.8027 10.0862 35.0877 10.4547 35.0877H19.721C20.0895 35.0877 20.3952 34.8027 20.421 34.4351L21.5437 18.4422C21.6577 16.8185 20.3712 15.4386 18.7436 15.4386H11.4322Z" fill="#D9D9D9"/>
<path d="M9.82422 21.0526H20.3505V22.4561H9.82422V21.0526Z" fill="#D9D9D9"/>
<path d="M9.82422 8.42102H20.3505V9.82453H9.82422V8.42102Z" fill="#D9D9D9"/>
<path fill-rule="evenodd" clip-rule="evenodd" d="M17.5435 2.10517H12.6312C11.8561 2.10517 11.2277 2.73354 11.2277 3.50868V11.9297H18.947V3.50868C18.947 2.73354 18.3187 2.10517 17.5435 2.10517ZM12.6312 0.70166C11.081 0.70166 9.82422 1.9584 9.82422 3.50868V13.3332H20.3505V3.50868C20.3505 1.9584 19.0938 0.70166 17.5435 0.70166H12.6312Z" fill="#D9D9D9"/>
<path d="M9.82422 25.9648H20.3505V27.3684H9.82422V25.9648Z" fill="#D9D9D9"/>
<path d="M21.0536 26.3158L24.2115 27.3684L23.5097 32.9825L25.2641 37.5439H23.5097L20.3518 36.1404L16.4922 31.579L17.5448 30.8772L20.3518 31.2281L20.001 28.4211L21.0536 26.3158Z" fill="white"/>
<path d="M37.7111 30.9225C37.6184 30.7587 37.4941 30.6155 37.3456 30.5015C37.1971 30.3874 37.0276 30.3049 36.847 30.2587C36.0515 30.0555 35.2262 30.0015 34.4116 30.0994C34.6223 28.8916 34.5445 27.6502 34.1846 26.4792C34.0796 26.1462 33.8561 25.8646 33.5575 25.6896C33.259 25.5145 32.9069 25.4584 32.5698 25.5322C31.7587 25.7143 30.9849 26.0378 30.2828 26.4881C29.7231 25.2926 28.8914 24.2491 27.8562 23.4433C27.615 23.2581 27.3208 23.1578 27.0182 23.1578C26.7157 23.1578 26.4214 23.2581 26.1802 23.4433C25.145 24.2491 24.3133 25.2926 23.7536 26.4881C23.0515 26.0378 22.2777 25.7143 21.4666 25.5322C21.1295 25.4584 20.7774 25.5145 20.4789 25.6896C20.1804 25.8646 19.9568 26.1462 19.8518 26.4792C19.4919 27.6502 19.4141 28.8916 19.6248 30.0994C18.8102 30.0015 17.9849 30.0555 17.1895 30.2587C17.0091 30.3048 16.8396 30.3872 16.6912 30.501C16.5429 30.6148 16.4186 30.7577 16.3257 30.9212C16.2329 31.0846 16.1734 31.2654 16.1509 31.4526C16.1283 31.6399 16.1431 31.8298 16.1944 32.0112C16.4999 33.1264 17.4426 35.2596 20.3057 36.9324C23.1688 38.6053 25.6652 38.5964 27.0095 38.5964H27.0269C28.3712 38.5964 30.8851 38.5964 33.7307 36.9324C36.5764 35.2684 37.5365 33.1264 37.8421 32.0112C37.8927 31.83 37.9072 31.6404 37.8847 31.4535C37.8623 31.2665 37.8032 31.086 37.7111 30.9225ZM32.8578 26.9218C33.1023 27.6653 33.3292 29.0018 32.8317 30.7189L32.8055 30.8163C32.6033 31.4813 32.325 32.12 31.9762 32.7193C31.5529 33.4603 31.0429 34.1468 30.4574 34.7639C30.9026 33.7018 31.2081 32.4006 31.2081 30.8074C31.2153 29.8011 31.0771 28.7992 30.7978 27.8335C31.4195 27.3966 32.1192 27.0869 32.8578 26.9218ZM27.0182 24.5762C27.8562 25.2135 29.8115 27.09 29.8115 30.8074C29.8115 34.5249 27.83 36.4368 27.0182 37.0386C26.2064 36.4368 24.225 34.5692 24.225 30.8074C24.225 27.0457 26.1802 25.2135 27.0182 24.5762ZM21.1786 26.9218C21.9172 27.0869 22.6169 27.3966 23.2386 27.8335C22.9593 28.7992 22.8211 29.8011 22.8283 30.8074C22.8283 32.4006 23.1338 33.7018 23.579 34.7639C22.9935 34.1468 22.4835 33.4603 22.0602 32.7193C21.7097 32.1178 21.4313 31.4759 21.2309 30.8074L21.2048 30.7278C20.6985 29.0018 20.9342 27.6653 21.1786 26.9218ZM17.5299 31.6306C18.0711 31.489 18.9178 31.3828 20.0089 31.5775C20.2305 32.2208 20.5141 32.8405 20.8556 33.4274C21.6041 34.7387 22.5868 35.8973 23.7536 36.8439C22.7894 36.5939 21.8641 36.2097 21.004 35.7021C18.5774 34.2771 17.7918 32.5334 17.5299 31.6306ZM33.0324 35.7021C32.1723 36.2097 31.247 36.5939 30.2828 36.8439C31.4496 35.8973 32.4323 34.7387 33.1808 33.4274C33.5223 32.8405 33.8059 32.2208 34.0275 31.5775C34.8451 31.4185 35.6863 31.4335 36.4978 31.6217C36.2447 32.5334 35.4591 34.2771 33.0324 35.7021Z" fill="#D9D9D9"/>
</svg>
