<svg width="40" height="40" viewBox="0 0 40 40" fill="none" xmlns="http://www.w3.org/2000/svg">
<mask id="path-1-inside-1_382_2542" fill="white">
<rect x="11.2266" y="8.42102" width="9.82456" height="29.4737" rx="0.701754"/>
</mask>
<rect x="11.2266" y="8.42102" width="9.82456" height="29.4737" rx="0.701754" fill="white" stroke="#D9D9D9" stroke-width="2.80702" mask="url(#path-1-inside-1_382_2542)"/>
<mask id="path-2-inside-2_382_2542" fill="white">
<rect x="14.0352" y="17.5438" width="4.21053" height="9.12281" rx="0.701754"/>
</mask>
<rect x="14.0352" y="17.5438" width="4.21053" height="9.12281" rx="0.701754" fill="white" stroke="#D9D9D9" stroke-width="2.80702" mask="url(#path-2-inside-2_382_2542)"/>
<mask id="path-3-inside-3_382_2542" fill="white">
<rect x="9.82422" y="2.80701" width="12.6316" height="7.01754" rx="0.701754"/>
</mask>
<rect x="9.82422" y="2.80701" width="12.6316" height="7.01754" rx="0.701754" fill="white" stroke="#D9D9D9" stroke-width="2.80702" mask="url(#path-3-inside-3_382_2542)"/>
<rect x="12.9837" y="8.77193" width="5.61404" height="0.701755" transform="rotate(-90 12.9837 8.77193)" stroke="#D9D9D9" stroke-width="0.701754"/>
<rect x="15.7884" y="8.77193" width="5.61404" height="0.701755" transform="rotate(-90 15.7884 8.77193)" stroke="#D9D9D9" stroke-width="0.701754"/>
<rect x="18.597" y="8.77193" width="5.61404" height="0.701755" transform="rotate(-90 18.597 8.77193)" stroke="#D9D9D9" stroke-width="0.701754"/>
<mask id="path-7-inside-4_382_2542" fill="white">
<path d="M25.9648 16.8422H27.3684V37.193C27.3684 37.5806 27.0542 37.8948 26.6666 37.8948C26.279 37.8948 25.9648 37.5806 25.9648 37.193V16.8422Z"/>
</mask>
<path d="M25.9648 16.8422H27.3684V37.193C27.3684 37.5806 27.0542 37.8948 26.6666 37.8948C26.279 37.8948 25.9648 37.5806 25.9648 37.193V16.8422Z" fill="white"/>
<path d="M25.9648 16.8422V15.4387H24.5613V16.8422H25.9648ZM27.3684 16.8422H28.7719V15.4387H27.3684V16.8422ZM25.9648 18.2457H27.3684V15.4387H25.9648V18.2457ZM25.9648 16.8422V37.193H28.7719V16.8422H25.9648ZM27.3684 37.193V16.8422H24.5613V37.193H27.3684ZM26.6666 36.4913C27.0542 36.4913 27.3684 36.8055 27.3684 37.193H24.5613C24.5613 38.3557 25.5039 39.2983 26.6666 39.2983V36.4913ZM25.9648 37.193C25.9648 36.8055 26.279 36.4913 26.6666 36.4913V39.2983C27.8293 39.2983 28.7719 38.3557 28.7719 37.193H25.9648Z" fill="#D9D9D9" mask="url(#path-7-inside-4_382_2542)"/>
<path d="M29.472 11.5789C29.472 13.1232 29.1024 14.487 28.5412 15.441C27.9705 16.4111 27.2837 16.8421 26.665 16.8421C26.0464 16.8421 25.3595 16.4111 24.7888 15.441C24.2277 14.487 23.858 13.1232 23.858 11.5789C23.858 10.0347 24.2277 8.67084 24.7888 7.7169C25.3595 6.74674 26.0464 6.31577 26.665 6.31577C27.2837 6.31577 27.9705 6.74674 28.5412 7.7169C29.1024 8.67084 29.472 10.0347 29.472 11.5789Z" fill="white" stroke="#D9D9D9" stroke-width="1.40351"/>
</svg>
