<svg width="40" height="40" viewBox="0 0 40 40" fill="none" xmlns="http://www.w3.org/2000/svg">
<path fill-rule="evenodd" clip-rule="evenodd" d="M27.9531 5.77295L30.9535 3.97085L34.1716 9.32871C34.527 9.92052 34.3354 10.6884 33.7436 11.0439L32.8863 11.5588C32.2945 11.9142 31.5266 11.7226 31.1712 11.1308L27.9531 5.77295ZM30.0113 6.28651L32.3283 10.1442L32.757 9.88672L30.44 6.02906L30.0113 6.28651Z" fill="#D9D9D9"/>
<path fill-rule="evenodd" clip-rule="evenodd" d="M21.0158 11.5L18.4844 18.1037V38.5H29.4844V18.1037L26.9529 11.5H21.0158ZM20.672 10C20.2578 10 19.8865 10.2553 19.7383 10.6421L17.0506 17.6533C17.0068 17.7675 16.9844 17.8888 16.9844 18.0112V39C16.9844 39.5523 17.4321 40 17.9844 40H29.9844C30.5367 40 30.9844 39.5523 30.9844 39V18.0112C30.9844 17.8888 30.9619 17.7675 30.9181 17.6533L28.2305 10.6421C28.0822 10.2553 27.7109 10 27.2968 10H20.672Z" fill="#D9D9D9"/>
<path fill-rule="evenodd" clip-rule="evenodd" d="M17.2344 17.5C17.2344 17.0858 17.5702 16.75 17.9844 16.75H29.9844C30.3986 16.75 30.7344 17.0858 30.7344 17.5C30.7344 17.9142 30.3986 18.25 29.9844 18.25H17.9844C17.5702 18.25 17.2344 17.9142 17.2344 17.5Z" fill="#D9D9D9"/>
<path fill-rule="evenodd" clip-rule="evenodd" d="M21.4844 6.5H26.4844V11.5H21.4844V6.5ZM22.9844 8V10H24.9844V8H22.9844Z" fill="#D9D9D9"/>
<path d="M20.9844 8.5197H21.2102H28.0401C28.2409 8.5197 28.4037 8.36118 28.4037 8.16563C28.4037 6.21017 30.0318 4.62496 32.0401 4.62496H38.4844C38.7605 4.62496 38.9844 4.40699 38.9844 4.13812V1.21707C38.9844 0.948191 38.7605 0.730225 38.4844 0.730225H25.9844C22.6707 0.730225 19.9844 3.34582 19.9844 6.57233V7.54601C19.9844 8.08377 20.4321 8.5197 20.9844 8.5197Z" fill="white"/>
<path fill-rule="evenodd" clip-rule="evenodd" d="M25.9844 1.46053C23.0849 1.46053 20.7344 3.74918 20.7344 6.57237V7.54605C20.7344 7.68049 20.8463 7.78947 20.9844 7.78947H27.6705C27.8661 5.6069 29.7478 3.89474 32.0401 3.89474H38.2344V1.46053H25.9844ZM19.2344 6.57237C19.2344 2.94255 22.2565 0 25.9844 0H38.4844C39.1747 0 39.7344 0.544916 39.7344 1.21711V4.13816C39.7344 4.81035 39.1747 5.35526 38.4844 5.35526H32.0401C30.446 5.35526 29.1537 6.61352 29.1537 8.16567C29.1537 8.76453 28.6551 9.25 28.0401 9.25H20.9844C20.0179 9.25 19.2344 8.48712 19.2344 7.54605V6.57237Z" fill="#D9D9D9"/>
<path fill-rule="evenodd" clip-rule="evenodd" d="M35.9844 0C36.3986 0 36.7344 0.32695 36.7344 0.730263V4.625C36.7344 5.02831 36.3986 5.35526 35.9844 5.35526C35.5702 5.35526 35.2344 5.02831 35.2344 4.625V0.730263C35.2344 0.32695 35.5702 0 35.9844 0Z" fill="#D9D9D9"/>
<path fill-rule="evenodd" clip-rule="evenodd" d="M0.25 34.25C0.25 31.0744 2.82436 28.5 6 28.5H14C17.1756 28.5 19.75 31.0744 19.75 34.25C19.75 37.4256 17.1756 40 14 40H6C2.82436 40 0.25 37.4256 0.25 34.25Z" fill="white"/>
<path fill-rule="evenodd" clip-rule="evenodd" d="M0.25 34.25C0.25 31.0744 2.82436 28.5 6 28.5H14C17.1756 28.5 19.75 31.0744 19.75 34.25C19.75 37.4256 17.1756 40 14 40H6C2.82436 40 0.25 37.4256 0.25 34.25ZM2.71995 36.9527C2.96432 36.9846 3.22455 37 3.5 37H16C16.4142 37 16.75 36.6642 16.75 36.25C16.75 35.8358 16.4142 35.5 16 35.5H3.5C2.59356 35.5 2.1973 35.2949 2.02084 35.1246C1.85261 34.9622 1.75 34.7015 1.75 34.25C1.75 31.9028 3.65279 30 6 30H14C16.3472 30 18.25 31.9028 18.25 34.25C18.25 36.5972 16.3472 38.5 14 38.5H6C4.67939 38.5 3.49946 37.8977 2.71995 36.9527Z" fill="#D9D9D9"/>
<circle cx="13.0002" cy="29.4184" r="1.84784" fill="white"/>
<path fill-rule="evenodd" clip-rule="evenodd" d="M13 30.9183C13.8284 30.9183 14.5 30.2468 14.5 29.4183C14.5 28.5899 13.8284 27.9183 13 27.9183C12.1716 27.9183 11.5 28.5899 11.5 29.4183C11.5 30.2468 12.1716 30.9183 13 30.9183ZM13 32.4183C14.6569 32.4183 16 31.0752 16 29.4183C16 27.7615 14.6569 26.4183 13 26.4183C11.3431 26.4183 10 27.7615 10 29.4183C10 31.0752 11.3431 32.4183 13 32.4183Z" fill="#D9D9D9"/>
<path fill-rule="evenodd" clip-rule="evenodd" d="M6.5 24.5C7.05228 24.5 7.5 24.0523 7.5 23.5C7.5 22.9477 7.05228 22.5 6.5 22.5C5.94772 22.5 5.5 22.9477 5.5 23.5C5.5 24.0523 5.94772 24.5 6.5 24.5ZM6.5 26C7.88071 26 9 24.8807 9 23.5C9 22.1193 7.88071 21 6.5 21C5.11929 21 4 22.1193 4 23.5C4 24.8807 5.11929 26 6.5 26Z" fill="#D9D9D9"/>
<path fill-rule="evenodd" clip-rule="evenodd" d="M11.5 18.5C12.0523 18.5 12.5 18.0523 12.5 17.5C12.5 16.9477 12.0523 16.5 11.5 16.5C10.9477 16.5 10.5 16.9477 10.5 17.5C10.5 18.0523 10.9477 18.5 11.5 18.5ZM11.5 20C12.8807 20 14 18.8807 14 17.5C14 16.1193 12.8807 15 11.5 15C10.1193 15 9 16.1193 9 17.5C9 18.8807 10.1193 20 11.5 20Z" fill="#D9D9D9"/>
</svg>
