<svg width="40" height="40" viewBox="0 0 40 40" fill="none" xmlns="http://www.w3.org/2000/svg">
<path fill-rule="evenodd" clip-rule="evenodd" d="M11.2277 4.21052V7.01753H18.947V4.21052H11.2277ZM10.526 2.80701C10.1384 2.80701 9.82422 3.12119 9.82422 3.50876V7.71929C9.82422 8.10686 10.1384 8.42104 10.526 8.42104H19.6488C20.0363 8.42104 20.3505 8.10686 20.3505 7.71929V3.50876C20.3505 3.12119 20.0363 2.80701 19.6488 2.80701H10.526Z" fill="#D9D9D9"/>
<path fill-rule="evenodd" clip-rule="evenodd" d="M2.10526 36.4913H21.0526C21.4402 36.4913 21.7544 36.1771 21.7544 35.7895V18.0729L19.2636 8.42109H10.6388L2.88913 16.8307C1.93384 17.8673 1.40351 19.2254 1.40351 20.6351V35.7895C1.40351 36.1771 1.7177 36.4913 2.10526 36.4913ZM10.0236 7.01758L1.85703 15.8796C0.662916 17.1754 0 18.873 0 20.6351V35.7895C0 36.9522 0.942558 37.8948 2.10526 37.8948H21.0526C22.2153 37.8948 23.1579 36.9522 23.1579 35.7895V17.8948L20.3509 7.01758H10.0236Z" fill="#D9D9D9"/>
<path fill-rule="evenodd" clip-rule="evenodd" d="M8.64097 14.773C8.92736 14.8686 9.12048 15.1367 9.12048 15.4386V32.9825C9.12048 33.37 8.80629 33.6842 8.41872 33.6842H3.50644C3.11887 33.6842 2.80469 33.37 2.80469 32.9825V23.8491C2.80469 22.4803 3.24933 21.1486 4.07167 20.0545L7.85774 15.017C8.03914 14.7756 8.35459 14.6774 8.64097 14.773ZM7.71697 17.5403L5.19363 20.8977C4.55403 21.7487 4.2082 22.7845 4.2082 23.8491V32.2807H7.71697V17.5403Z" fill="#D9D9D9"/>
<path fill-rule="evenodd" clip-rule="evenodd" d="M25.6081 26.6667L27.7913 36.4913H32.5572L34.7404 26.6667H25.6081ZM25.4184 25.8128L25.4183 25.8127L25.4184 25.8128ZM24.7333 25.2632H35.6152C36.0642 25.2632 36.3977 25.6789 36.3003 26.1172L33.8051 37.3452C33.7338 37.6663 33.449 37.8948 33.1201 37.8948H27.2284C26.8995 37.8948 26.6147 37.6663 26.5434 37.3452L24.0482 26.1172C23.9509 25.6789 24.2843 25.2632 24.7333 25.2632Z" fill="#D9D9D9"/>
<path fill-rule="evenodd" clip-rule="evenodd" d="M34.3867 25.9649C34.3867 25.5774 34.7009 25.2632 35.0885 25.2632H37.1937C38.744 25.2632 40.0008 26.5199 40.0008 28.0702V30.5965C40.0008 30.9841 39.6866 31.2983 39.299 31.2983C38.9114 31.2983 38.5972 30.9841 38.5972 30.5965V28.0702C38.5972 27.2951 37.9689 26.6667 37.1937 26.6667H35.0885C34.7009 26.6667 34.3867 26.3525 34.3867 25.9649Z" fill="#D9D9D9"/>
<path fill-rule="evenodd" clip-rule="evenodd" d="M21.7542 21.7543H13.3332V24.5614H21.7542V21.7543ZM13.3332 20.3508C12.5581 20.3508 11.9297 20.9792 11.9297 21.7543V24.5614C11.9297 25.3365 12.5581 25.9649 13.3332 25.9649H21.7542C22.5294 25.9649 23.1578 25.3365 23.1578 24.5614V21.7543C23.1578 20.9792 22.5294 20.3508 21.7542 20.3508H13.3332Z" fill="#D9D9D9"/>
</svg>
