<svg width="40" height="40" viewBox="0 0 40 40" fill="none" xmlns="http://www.w3.org/2000/svg">
<path d="M12.0973 17.6541C12.0973 18.112 11.7246 18.4846 11.2667 18.4846C10.9036 18.4846 10.5594 18.5825 10.2341 18.7657C9.47938 19.2046 9.00885 20.0667 9.00885 21.0173C9.00885 21.2889 9.0499 21.5573 9.13516 21.8194C9.14464 21.8478 9.18885 21.9931 9.19201 22.0278C9.20464 22.0562 9.36253 22.2899 9.47622 22.4731C9.84253 23.0383 10.3415 23.8183 10.6762 24.8289C10.8183 25.2646 10.5783 25.7352 10.1457 25.8773C10.0573 25.9057 9.97201 25.9183 9.88674 25.9183C9.53938 25.9183 9.21411 25.6973 9.09727 25.3467C8.83201 24.5383 8.43411 23.9225 8.08359 23.3762C7.90674 23.1015 7.67622 22.7225 7.63201 22.6278C7.61306 22.5804 7.57201 22.4036 7.55938 22.3531C7.41095 21.9015 7.34148 21.4657 7.34148 21.0204C7.34148 19.4762 8.13095 18.0646 9.39411 17.3288C9.97516 16.9941 10.6004 16.8236 11.2604 16.8236C11.7246 16.8236 12.0973 17.1931 12.0973 17.6541ZM33.7004 35.2689C33.7004 35.4555 33.6973 38.152 33.6973 38.152C33.6973 38.6099 33.3278 38.9825 32.8667 38.9825H22.0731C21.612 38.9825 21.2425 38.6099 21.2425 38.152V35.8499C20.851 36.052 20.4404 36.2352 20.0141 36.371C19.9289 36.3962 19.8467 36.4089 19.7678 36.4089C19.5941 36.4089 19.4204 36.3552 19.272 36.2478C19.0604 36.0899 18.9373 35.8436 18.9373 35.5783C18.9436 31.2394 17.1657 28.2899 15.5741 28.2899C13.9762 28.2899 12.2046 31.2362 12.2046 35.471C12.2046 35.7362 12.0815 36.0394 11.8667 36.1973C11.652 36.352 11.3804 36.4531 11.1278 36.371C8.43411 35.5183 6.69727 33.4562 6.69727 31.1194C6.84885 29.5499 6.99727 26.9004 6.73832 26.1204C6.57095 25.6183 6.27727 25.1667 5.99622 24.7246C5.65201 24.1941 5.29516 23.6446 5.15938 22.9878C4.9699 22.4004 4.85938 21.7089 4.85938 21.0141C4.85938 18.5857 6.12569 16.3436 8.15622 15.1657C10.512 13.8015 13.6036 14.1962 15.5678 16.0467C17.292 14.4236 19.8783 13.9215 22.0762 14.7425L22.0004 7.20187C22.0225 6.75345 22.3794 6.40608 22.831 6.40608H24.4257V2.8724C24.4257 2.4145 24.7983 2.04187 25.2562 2.04187H29.4089C29.6299 2.04187 29.8415 2.13029 29.9962 2.28503C30.151 2.43976 30.2394 2.65134 30.2394 2.8724L30.2362 6.40292H31.7583C32.2067 6.40292 32.5699 6.75345 32.5889 7.19871C32.5889 7.19871 33.6815 34.7264 33.691 34.8331C33.7004 34.9397 33.7004 35.0932 33.7004 35.0932C33.7004 35.0932 33.7004 35.0822 33.7004 35.2689ZM26.0836 6.30819H28.572L28.5752 3.7124H26.0836V6.30819ZM23.6236 8.07029L22.9352 34.2741H32.0015L30.9594 8.07029H23.6236ZM20.5604 34.3467C20.8257 34.2046 21.0625 34.031 21.2899 33.851L22.0004 16.5425C20.0836 15.5194 17.6046 16.0467 16.2152 17.7962C16.0604 17.9952 15.8204 18.1089 15.5646 18.1089C15.3088 18.1089 15.072 17.992 14.911 17.7962C13.4931 16.0057 10.9225 15.4846 8.98674 16.6057C7.46148 17.4867 6.51411 19.1794 6.51411 21.0173C6.51411 21.5415 6.59622 22.0689 6.75727 22.5741C6.85516 23.0036 7.10148 23.3825 7.38569 23.8278C7.7078 24.3299 8.07727 24.8983 8.31411 25.6025C8.75622 26.9446 8.41832 30.5036 8.34885 31.2046C8.35516 32.4362 9.20148 33.6173 10.5815 34.3531C10.9036 29.9004 12.9815 26.632 15.571 26.632C18.1667 26.632 20.2541 29.9415 20.5604 34.3467ZM32.0362 37.3215L32.0394 35.9352H22.9036V37.3215H32.0362Z" fill="#68CCF3"/>
</svg>
