<svg width="40" height="40" viewBox="0 0 40 40" fill="none" xmlns="http://www.w3.org/2000/svg">
<path fill-rule="evenodd" clip-rule="evenodd" d="M21.7551 13.3333V37.193H37.8954V13.3333H21.7551ZM21.0533 11.9298C20.6657 11.9298 20.3516 12.244 20.3516 12.6316V37.8947C20.3516 38.2823 20.6657 38.5965 21.0533 38.5965H38.5972C38.9847 38.5965 39.2989 38.2823 39.2989 37.8947V12.6316C39.2989 12.244 38.9847 11.9298 38.5972 11.9298H21.0533Z" fill="#68CCF3"/>
<path fill-rule="evenodd" clip-rule="evenodd" d="M21.7551 3.50873V8.42101H37.8954V3.50873H21.7551ZM21.0533 2.10522C20.6657 2.10522 20.3516 2.41941 20.3516 2.80698V9.12277C20.3516 9.51034 20.6657 9.82452 21.0533 9.82452H38.5972C38.9847 9.82452 39.2989 9.51034 39.2989 9.12277V2.80698C39.2989 2.41941 38.9847 2.10522 38.5972 2.10522H21.0533Z" fill="#68CCF3"/>
<path fill-rule="evenodd" clip-rule="evenodd" d="M25.966 10.5264V11.9299H33.6853V10.5264H25.966ZM25.2643 9.12286C24.8767 9.12286 24.5625 9.43705 24.5625 9.82462V12.6316C24.5625 13.0192 24.8767 13.3334 25.2643 13.3334H34.3871C34.7746 13.3334 35.0888 13.0192 35.0888 12.6316V9.82462C35.0888 9.43705 34.7746 9.12286 34.3871 9.12286H25.2643Z" fill="#68CCF3"/>
<path fill-rule="evenodd" clip-rule="evenodd" d="M25.966 18.9473V28.7719H33.6853V18.9473H25.966ZM25.2643 17.5438C24.8767 17.5438 24.5625 17.858 24.5625 18.2456V29.4736C24.5625 29.8612 24.8767 30.1754 25.2643 30.1754H34.3871C34.7746 30.1754 35.0888 29.8612 35.0888 29.4736V18.2456C35.0888 17.858 34.7746 17.5438 34.3871 17.5438H25.2643Z" fill="#68CCF3"/>
<path d="M9.82422 14.0351C9.82422 13.6475 10.1384 13.3333 10.526 13.3333H14.7365C15.1241 13.3333 15.4383 13.6475 15.4383 14.0351V19.6491C15.4383 20.0367 15.1241 20.3509 14.7365 20.3509H10.526C10.1384 20.3509 9.82422 20.0367 9.82422 19.6491V14.0351Z" fill="white"/>
<path fill-rule="evenodd" clip-rule="evenodd" d="M11.2277 14.7368V18.9473H14.0347V14.7368H11.2277ZM10.526 13.3333C10.1384 13.3333 9.82422 13.6475 9.82422 14.0351V19.6491C9.82422 20.0367 10.1384 20.3509 10.526 20.3509H14.7365C15.1241 20.3509 15.4383 20.0367 15.4383 19.6491V14.0351C15.4383 13.6475 15.1241 13.3333 14.7365 13.3333H10.526Z" fill="#68CCF3"/>
<path d="M9.125 18.2456C9.125 17.858 9.43919 17.5438 9.82675 17.5438H15.4408C15.8284 17.5438 16.1425 17.858 16.1425 18.2456V23.1579C16.1425 23.5454 15.8284 23.8596 15.4408 23.8596H9.82675C9.43919 23.8596 9.125 23.5454 9.125 23.1579V18.2456Z" fill="white"/>
<path fill-rule="evenodd" clip-rule="evenodd" d="M10.5285 18.9473V22.4561H14.739V18.9473H10.5285ZM9.82675 17.5438C9.43919 17.5438 9.125 17.858 9.125 18.2456V23.1579C9.125 23.5454 9.43919 23.8596 9.82675 23.8596H15.4408C15.8284 23.8596 16.1425 23.5454 16.1425 23.1579V18.2456C16.1425 17.858 15.8284 17.5438 15.4408 17.5438H9.82675Z" fill="#68CCF3"/>
<path d="M7.7193 15.7895C7.7193 17.9211 5.99127 19.6491 3.85965 19.6491C1.72802 19.6491 0 17.9211 0 15.7895C0 13.6578 1.72802 11.9298 3.85965 11.9298C5.99127 11.9298 7.7193 13.6578 7.7193 15.7895Z" fill="white"/>
<path fill-rule="evenodd" clip-rule="evenodd" d="M3.85965 18.2456C5.21614 18.2456 6.31579 17.1459 6.31579 15.7895C6.31579 14.433 5.21614 13.3333 3.85965 13.3333C2.50316 13.3333 1.40351 14.433 1.40351 15.7895C1.40351 17.1459 2.50316 18.2456 3.85965 18.2456ZM3.85965 19.6491C5.99127 19.6491 7.7193 17.9211 7.7193 15.7895C7.7193 13.6578 5.99127 11.9298 3.85965 11.9298C1.72802 11.9298 0 13.6578 0 15.7895C0 17.9211 1.72802 19.6491 3.85965 19.6491Z" fill="#68CCF3"/>
<path d="M18.7116 38.5965C20.5785 36.9033 21.7534 34.4424 21.7534 31.7033C21.7534 26.5962 17.669 22.4562 12.6306 22.4562C7.59223 22.4562 3.50781 26.5962 3.50781 31.7033C3.50781 34.4424 4.68274 36.9033 6.54962 38.5965H18.7116Z" fill="white"/>
<path fill-rule="evenodd" clip-rule="evenodd" d="M18.144 37.193C19.5081 35.7789 20.3499 33.8434 20.3499 31.7033C20.3499 27.3534 16.876 23.8597 12.6306 23.8597C8.38521 23.8597 4.91132 27.3534 4.91132 31.7033C4.91132 33.8434 5.75311 35.7789 7.11726 37.193H18.144ZM18.7116 38.5965C20.5785 36.9033 21.7534 34.4424 21.7534 31.7033C21.7534 26.5962 17.669 22.4562 12.6306 22.4562C7.59223 22.4562 3.50781 26.5962 3.50781 31.7033C3.50781 34.4424 4.68274 36.9033 6.54962 38.5965H18.7116Z" fill="#68CCF3"/>
<path d="M7.01562 14.7368H9.82264V16.1403H7.01562V14.7368Z" fill="#68CCF3"/>
<path fill-rule="evenodd" clip-rule="evenodd" d="M9.67629 26.7645C10.0098 26.962 10.1201 27.3924 9.92261 27.7259C8.79427 29.6316 8.5677 32.8237 10.2387 35.0817C10.4692 35.3933 10.4035 35.8327 10.092 36.0632C9.78045 36.2938 9.34101 36.2281 9.11046 35.9166C7.04771 33.1292 7.35031 29.3156 8.71491 27.0109C8.91237 26.6774 9.34279 26.5671 9.67629 26.7645Z" fill="#68CCF3"/>
</svg>
