<svg width="86" height="86" viewBox="0 0 86 86" fill="none" xmlns="http://www.w3.org/2000/svg">
<path fill-rule="evenodd" clip-rule="evenodd" d="M40.3175 12.0757C40.2991 12.0868 40.2805 12.0976 40.2616 12.1081L14.6292 26.343C14.366 26.4895 14.1463 26.7038 13.9936 26.9635C13.8409 27.2232 13.7603 27.5191 13.7603 27.8205V55.9086C13.7611 56.8176 14.0047 57.7099 14.4661 58.4931C14.9275 59.2765 15.5899 59.9223 16.3848 60.3637L40.2581 73.6305C41.0158 74.0512 41.8681 74.272 42.7347 74.272C43.6013 74.272 44.4536 74.0512 45.2112 73.6305L69.0841 60.364C69.8794 59.9223 70.5425 59.2759 71.0039 58.492C71.4653 57.7082 71.7087 56.8154 71.709 55.9059V27.8206C71.709 27.5192 71.6285 27.2232 71.4757 26.9635C71.323 26.7038 71.1036 26.4896 70.8404 26.3432L45.2112 12.1081C44.4536 11.6874 43.6013 11.4666 42.7347 11.4666C41.8906 11.4666 41.0601 11.676 40.3175 12.0757ZM38.5226 9.13899C38.544 9.12582 38.5658 9.11307 38.588 9.10075C39.8566 8.39628 41.2836 8.02661 42.7347 8.02661C44.1857 8.02661 45.6128 8.39628 46.8813 9.10075L72.5112 23.3362L72.5119 23.3366C73.3113 23.7811 73.9773 24.4312 74.4409 25.2196C74.9046 26.008 75.149 26.9059 75.149 27.8206V55.9059C75.1487 57.4289 74.741 58.9246 73.9684 60.2371C73.1957 61.5496 72.0862 62.6317 70.7547 63.3711L46.8817 76.6376C45.6132 77.3421 44.1857 77.712 42.7347 77.712C41.2836 77.712 39.8566 77.3423 38.588 76.6379L14.7146 63.3711C13.3838 62.632 12.2746 61.5507 11.502 60.239C10.7294 58.9273 10.3214 57.4329 10.3203 55.9106L10.3203 27.8206C10.3203 26.906 10.5648 26.008 11.0284 25.2196C11.492 24.4312 12.158 23.7811 12.9574 23.3366L38.5226 9.13899Z" fill="#68CCF3"/>
<path fill-rule="evenodd" clip-rule="evenodd" d="M25.8839 16.4537C26.3453 15.6233 27.3924 15.3241 28.2228 15.7854L58.9171 32.8379C59.4632 33.1412 59.8018 33.7168 59.8018 34.3414V46.2781C59.8018 47.228 59.0318 47.9981 58.0818 47.9981C57.1319 47.9981 56.3618 47.228 56.3618 46.2781V35.3535L26.5522 18.7925C25.7218 18.3312 25.4226 17.2841 25.8839 16.4537ZM20.7693 43.1489C21.2318 42.3191 22.2793 42.0214 23.1091 42.4838L33.3406 48.1862C34.1703 48.6486 34.4681 49.6962 34.0056 50.5259C33.5432 51.3557 32.4956 51.6534 31.6659 51.191L21.4344 45.4887C20.6047 45.0262 20.3069 43.9787 20.7693 43.1489Z" fill="#68CCF3"/>
<path fill-rule="evenodd" clip-rule="evenodd" d="M41.0147 43.8797L11.205 27.3187L12.8756 24.3116L42.7347 40.9L72.5937 24.3116L74.2643 27.3187L44.4547 43.8797V75.2672H41.0147V43.8797Z" fill="#68CCF3"/>
</svg>
