<svg width="86" height="86" viewBox="0 0 86 86" fill="none" xmlns="http://www.w3.org/2000/svg">
<path fill-rule="evenodd" clip-rule="evenodd" d="M28.165 32.68C28.165 31.7301 28.9351 30.96 29.885 30.96H40.4111C41.361 30.96 42.1311 31.7301 42.1311 32.68V46.5573L58.2541 74.8279C58.5578 75.3603 58.5552 76.014 58.2473 76.5439C57.9395 77.0739 57.3729 77.4 56.76 77.4H13.76C13.149 77.4 12.5838 77.0758 12.2753 76.5483C11.9668 76.0209 11.9614 75.3693 12.2609 74.8367L28.165 46.5628V32.68ZM31.605 34.4V47.0133C31.605 47.3087 31.529 47.5991 31.3841 47.8566L16.701 73.96H53.799L38.917 47.8654C38.7689 47.6058 38.6911 47.3122 38.6911 47.0133V34.4H31.605Z" fill="#68CCF3"/>
<path fill-rule="evenodd" clip-rule="evenodd" d="M23.5067 32.1067C23.5067 31.1567 24.2768 30.3867 25.2267 30.3867H45.2934C46.2433 30.3867 47.0134 31.1567 47.0134 32.1067C47.0134 33.0566 46.2433 33.8267 45.2934 33.8267H25.2267C24.2768 33.8267 23.5067 33.0566 23.5067 32.1067Z" fill="#68CCF3"/>
<path fill-rule="evenodd" clip-rule="evenodd" d="M22.36 57.9067C22.36 56.9567 23.0759 56.1867 23.9589 56.1867H46.5612C47.4442 56.1867 48.16 56.9567 48.16 57.9067C48.16 58.8566 47.4442 59.6267 46.5612 59.6267H23.9589C23.0759 59.6267 22.36 58.8566 22.36 57.9067Z" fill="#68CCF3"/>
<path fill-rule="evenodd" clip-rule="evenodd" d="M46.6451 25.9832C46.2152 26.8303 46.5534 27.8655 47.4005 28.2953C48.2476 28.7252 49.2828 28.387 49.7127 27.5399L50.491 26.0061L71.7087 36.7732C75.2383 38.5643 79.5516 37.155 81.3427 33.6254C83.1339 30.0958 81.7245 25.7825 78.195 23.9914L56.9772 13.2243L57.7556 11.6905C58.1854 10.8434 57.8472 9.8082 57.0001 9.37833C56.153 8.94846 55.1178 9.2867 54.688 10.1338L46.6451 25.9832ZM55.4205 16.2919L52.0477 22.9384L73.2654 33.7056C75.1008 34.6369 77.3437 33.9041 78.2751 32.0687C79.2065 30.2333 78.4737 27.9904 76.6383 27.059L55.4205 16.2919Z" fill="#68CCF3"/>
<path fill-rule="evenodd" clip-rule="evenodd" d="M74.7282 22.9524C75.0343 23.8516 74.5535 24.8288 73.6542 25.1349L60.1809 29.7215C59.2817 30.0277 58.3045 29.5469 57.9984 28.6476C57.6922 27.7484 58.1731 26.7712 59.0723 26.4651L72.5457 21.8784C73.4449 21.5723 74.4221 22.0531 74.7282 22.9524Z" fill="#68CCF3"/>
<path fill-rule="evenodd" clip-rule="evenodd" d="M24.94 13.1867C26.0483 13.1867 26.9467 12.2883 26.9467 11.18C26.9467 10.0717 26.0483 9.17333 24.94 9.17333C23.8318 9.17333 22.9334 10.0717 22.9334 11.18C22.9334 12.2883 23.8318 13.1867 24.94 13.1867ZM24.94 16.6267C27.9481 16.6267 30.3867 14.1881 30.3867 11.18C30.3867 8.17189 27.9481 5.73333 24.94 5.73333C21.9319 5.73333 19.4934 8.17189 19.4934 11.18C19.4934 14.1881 21.9319 16.6267 24.94 16.6267Z" fill="#68CCF3"/>
<path fill-rule="evenodd" clip-rule="evenodd" d="M35.8334 24.08C36.9416 24.08 37.84 23.1816 37.84 22.0733C37.84 20.9651 36.9416 20.0667 35.8334 20.0667C34.7251 20.0667 33.8267 20.9651 33.8267 22.0733C33.8267 23.1816 34.7251 24.08 35.8334 24.08ZM35.8334 27.52C38.8415 27.52 41.28 25.0814 41.28 22.0733C41.28 19.0652 38.8415 16.6267 35.8334 16.6267C32.8253 16.6267 30.3867 19.0652 30.3867 22.0733C30.3867 25.0814 32.8253 27.52 35.8334 27.52Z" fill="#68CCF3"/>
<path fill-rule="evenodd" clip-rule="evenodd" d="M46.7267 7.45333C47.835 7.45333 48.7334 6.55492 48.7334 5.44667C48.7334 4.33842 47.835 3.44 46.7267 3.44C45.6185 3.44 44.72 4.33842 44.72 5.44667C44.72 6.55492 45.6185 7.45333 46.7267 7.45333ZM46.7267 10.8933C49.7348 10.8933 52.1734 8.45478 52.1734 5.44667C52.1734 2.43856 49.7348 0 46.7267 0C43.7186 0 41.28 2.43856 41.28 5.44667C41.28 8.45478 43.7186 10.8933 46.7267 10.8933Z" fill="#68CCF3"/>
</svg>
