<svg width="86" height="86" viewBox="0 0 86 86" fill="none" xmlns="http://www.w3.org/2000/svg">
<path fill-rule="evenodd" clip-rule="evenodd" d="M54.9253 38.9866C49.479 38.9866 45.064 43.4017 45.064 48.8479C45.064 54.2942 49.479 58.7093 54.9253 58.7093C60.3716 58.7093 64.7866 54.2942 64.7866 48.8479C64.7866 43.4017 60.3716 38.9866 54.9253 38.9866ZM41.3946 48.8479C41.3946 41.3752 47.4525 35.3173 54.9253 35.3173C62.3981 35.3173 68.456 41.3752 68.456 48.8479C68.456 56.3207 62.3981 62.3786 54.9253 62.3786C47.4525 62.3786 41.3946 56.3207 41.3946 48.8479Z" fill="#68CCF3"/>
<path fill-rule="evenodd" clip-rule="evenodd" d="M47.128 56.7599C48.1412 56.7599 48.9626 57.5813 48.9626 58.5946V72.4693L53.8245 68.8229C54.4768 68.3336 55.3738 68.3336 56.0261 68.8229L60.888 72.4693V58.5946C60.888 57.5813 61.7094 56.7599 62.7226 56.7599C63.7359 56.7599 64.5573 57.5813 64.5573 58.5946V76.1386C64.5573 76.8335 64.1647 77.4688 63.5431 77.7796C62.9216 78.0904 62.1778 78.0233 61.6218 77.6063L54.9253 72.5839L48.2288 77.6063C47.6728 78.0233 46.929 78.0904 46.3075 77.7796C45.6859 77.4688 45.2933 76.8335 45.2933 76.1386V58.5946C45.2933 57.5813 46.1147 56.7599 47.128 56.7599Z" fill="#68CCF3"/>
<path fill-rule="evenodd" clip-rule="evenodd" d="M15.9386 11.6959C12.6634 11.6959 9.97597 14.3833 9.97597 17.6586V56.6453C9.97597 58.2267 10.6042 59.7433 11.7224 60.8615C12.8406 61.9797 14.3572 62.6079 15.9386 62.6079H35.432C36.4452 62.6079 37.2666 63.4293 37.2666 64.4426C37.2666 65.4559 36.4452 66.2773 35.432 66.2773H15.9386C13.3841 66.2773 10.9341 65.2625 9.12779 63.4561C7.32144 61.6498 6.30664 59.1998 6.30664 56.6453V17.6586C6.30664 12.3568 10.6368 8.02661 15.9386 8.02661H70.52C73.0745 8.02661 75.5245 9.04141 77.3308 10.8478C79.1372 12.6541 80.152 15.104 80.152 17.6586V56.6472C80.1502 58.3362 79.7044 59.9952 78.8591 61.4576C78.0138 62.9199 76.7988 64.1343 75.336 64.9788C74.4585 65.4855 73.3364 65.1848 72.8298 64.3073C72.3231 63.4298 72.6238 62.3077 73.5013 61.8011C74.4068 61.2783 75.159 60.5265 75.6823 59.6213C76.2055 58.716 76.4816 57.689 76.4826 56.6434V17.6586C76.4826 16.0772 75.8544 14.5606 74.7362 13.4424C73.618 12.3242 72.1014 11.6959 70.52 11.6959H15.9386ZM18.0026 25.4559C18.0026 24.4427 18.824 23.6213 19.8373 23.6213H66.6213C67.6346 23.6213 68.456 24.4427 68.456 25.4559C68.456 26.4692 67.6346 27.2906 66.6213 27.2906H19.8373C18.824 27.2906 18.0026 26.4692 18.0026 25.4559ZM18.0026 37.1519C18.0026 36.1387 18.824 35.3173 19.8373 35.3173H31.5333C32.5466 35.3173 33.368 36.1387 33.368 37.1519C33.368 38.1652 32.5466 38.9866 31.5333 38.9866H19.8373C18.824 38.9866 18.0026 38.1652 18.0026 37.1519ZM18.0026 48.8479C18.0026 47.8347 18.824 47.0133 19.8373 47.0133H27.6346C28.6479 47.0133 29.4693 47.8347 29.4693 48.8479C29.4693 49.8612 28.6479 50.6826 27.6346 50.6826H19.8373C18.824 50.6826 18.0026 49.8612 18.0026 48.8479Z" fill="#68CCF3"/>
</svg>
