<svg width="86" height="86" viewBox="0 0 86 86" fill="none" xmlns="http://www.w3.org/2000/svg">
<path fill-rule="evenodd" clip-rule="evenodd" d="M64.978 15.2889H21.0224V73.5778H64.978V15.2889ZM21.0224 11.4667C18.9115 11.4667 17.2002 13.178 17.2002 15.2889V73.5778C17.2002 75.6888 18.9115 77.4 21.0224 77.4H64.978C67.0889 77.4 68.8002 75.6888 68.8002 73.5778V15.2889C68.8002 13.178 67.0889 11.4667 64.978 11.4667H21.0224Z" fill="#68CCF3"/>
<path d="M28.6669 9.36448C28.6669 8.309 29.5225 7.45337 30.578 7.45337H55.4224C56.4779 7.45337 57.3335 8.309 57.3335 9.36448V17.0089C57.3335 18.0644 56.4779 18.92 55.4224 18.92H30.578C29.5225 18.92 28.6669 18.0644 28.6669 17.0089V9.36448Z" fill="white"/>
<path fill-rule="evenodd" clip-rule="evenodd" d="M32.4891 11.2756V15.0978H53.5113V11.2756H32.4891ZM30.578 7.45337C29.5225 7.45337 28.6669 8.309 28.6669 9.36448V17.0089C28.6669 18.0644 29.5225 18.92 30.578 18.92H55.4224C56.4779 18.92 57.3335 18.0644 57.3335 17.0089V9.36448C57.3335 8.309 56.4779 7.45337 55.4224 7.45337H30.578Z" fill="#68CCF3"/>
<path fill-rule="evenodd" clip-rule="evenodd" d="M39.2062 37.2424L35.2293 47.6284C34.9823 48.2736 34.3732 48.7083 33.6828 48.7323C32.9924 48.7564 32.3546 48.365 32.0634 47.7386L29.2643 41.7185H24.6535C23.7036 41.7185 22.9335 40.9484 22.9335 39.9985C22.9335 39.0486 23.7036 38.2785 24.6535 38.2785H29.9957C30.8879 38.2785 31.6991 38.7959 32.0752 39.6049L33.4696 42.6039L37.1476 32.9985C37.9195 30.9827 40.7951 31.0525 41.4683 33.1035L44.8476 43.3998L46.6435 41.0823C47.3298 40.1966 48.5555 39.9365 49.5423 40.4671L52.6993 42.1646L54.9025 39.203C55.3352 38.6213 56.0175 38.2785 56.7425 38.2785H61.3469C62.2968 38.2785 63.0669 39.0486 63.0669 39.9985C63.0669 40.9484 62.2968 41.7185 61.3469 41.7185H57.3186L54.8683 45.0122C54.1894 45.9249 52.9441 46.2019 51.9422 45.6633L48.7681 43.9566L46.2441 47.2136C45.1181 48.6667 42.8257 48.2707 42.2524 46.524L39.2062 37.2424Z" fill="#68CCF3"/>
<path fill-rule="evenodd" clip-rule="evenodd" d="M25.2269 60.2C25.2269 59.2501 25.9969 58.48 26.9469 58.48H42.1402C43.0901 58.48 43.8602 59.2501 43.8602 60.2C43.8602 61.15 43.0901 61.92 42.1402 61.92H26.9469C25.9969 61.92 25.2269 61.15 25.2269 60.2Z" fill="#68CCF3"/>
<path fill-rule="evenodd" clip-rule="evenodd" d="M25.2269 67.08C25.2269 66.1301 25.9969 65.36 26.9469 65.36H54.4669C55.4168 65.36 56.1869 66.1301 56.1869 67.08C56.1869 68.03 55.4168 68.8 54.4669 68.8H26.9469C25.9969 68.8 25.2269 68.03 25.2269 67.08Z" fill="#68CCF3"/>
</svg>
