<svg width="86" height="86" viewBox="0 0 86 86" fill="none" xmlns="http://www.w3.org/2000/svg">
<path fill-rule="evenodd" clip-rule="evenodd" d="M36.8966 74.2164C38.409 74.2164 39.635 72.9904 39.635 71.478C39.635 69.9656 38.409 68.7396 36.8966 68.7396C35.3842 68.7396 34.1582 69.9656 34.1582 71.478C34.1582 72.9904 35.3842 74.2164 36.8966 74.2164ZM36.8966 77.8677C40.4255 77.8677 43.2863 75.0069 43.2863 71.478C43.2863 67.9491 40.4255 65.0884 36.8966 65.0884C33.3677 65.0884 30.507 67.9491 30.507 71.478C30.507 75.0069 33.3677 77.8677 36.8966 77.8677Z" fill="#68CCF3"/>
<path fill-rule="evenodd" clip-rule="evenodd" d="M60.6296 74.2164C62.142 74.2164 63.368 72.9904 63.368 71.478C63.368 69.9656 62.142 68.7396 60.6296 68.7396C59.1172 68.7396 57.8912 69.9656 57.8912 71.478C57.8912 72.9904 59.1172 74.2164 60.6296 74.2164ZM60.6296 77.8677C64.1585 77.8677 67.0193 75.0069 67.0193 71.478C67.0193 67.9491 64.1585 65.0884 60.6296 65.0884C57.1007 65.0884 54.24 67.9491 54.24 71.478C54.24 75.0069 57.1007 77.8677 60.6296 77.8677Z" fill="#68CCF3"/>
<path fill-rule="evenodd" clip-rule="evenodd" d="M8.59961 12.1456C8.59961 11.1373 9.41696 10.3199 10.4252 10.3199H20.4661C21.3038 10.3199 22.034 10.8901 22.2372 11.7028L26.4555 28.5761H71.714C75.16 28.5761 77.7498 31.7206 77.0893 35.1028L73.0987 55.5345C72.4291 58.963 69.425 61.4371 65.9317 61.4371H34.6708L35.9293 66.4712C36.1739 67.4494 35.5791 68.4405 34.601 68.6851C33.6228 68.9296 32.6316 68.3349 32.3871 67.3568L19.0407 13.9712H10.4252C9.41696 13.9712 8.59961 13.1538 8.59961 12.1456ZM33.758 57.7859H65.9317C67.6783 57.7859 69.1804 56.5489 69.5152 54.8346L73.5057 34.4029C73.7259 33.2755 72.8627 32.2273 71.714 32.2273H27.3683L33.758 57.7859ZM39.635 72.3908C39.635 71.3826 40.4524 70.5652 41.4607 70.5652H56.0656C57.0738 70.5652 57.8912 71.3826 57.8912 72.3908C57.8912 73.3991 57.0738 74.2164 56.0656 74.2164H41.4607C40.4524 74.2164 39.635 73.3991 39.635 72.3908Z" fill="#68CCF3"/>
<path fill-rule="evenodd" clip-rule="evenodd" d="M39.635 37.7042C40.6433 37.7042 41.4607 38.5215 41.4607 39.5298V50.4835C41.4607 51.4917 40.6433 52.3091 39.635 52.3091C38.6268 52.3091 37.8094 51.4917 37.8094 50.4835V39.5298C37.8094 38.5215 38.6268 37.7042 39.635 37.7042Z" fill="#68CCF3"/>
<path fill-rule="evenodd" clip-rule="evenodd" d="M50.5887 37.7042C51.597 37.7042 52.4143 38.5215 52.4143 39.5298V50.4835C52.4143 51.4917 51.597 52.3091 50.5887 52.3091C49.5805 52.3091 48.7631 51.4917 48.7631 50.4835V39.5298C48.7631 38.5215 49.5805 37.7042 50.5887 37.7042Z" fill="#68CCF3"/>
<path fill-rule="evenodd" clip-rule="evenodd" d="M61.5424 37.7042C62.5507 37.7042 63.368 38.5215 63.368 39.5298V50.4835C63.368 51.4917 62.5507 52.3091 61.5424 52.3091C60.5342 52.3091 59.7168 51.4917 59.7168 50.4835V39.5298C59.7168 38.5215 60.5342 37.7042 61.5424 37.7042Z" fill="#68CCF3"/>
</svg>
