<svg width="57" height="57" viewBox="0 0 57 57" fill="none" xmlns="http://www.w3.org/2000/svg">
<mask id="path-1-inside-1_223_2535" fill="white">
<rect x="16" y="12" width="14" height="42" rx="1"/>
</mask>
<rect x="16" y="12" width="14" height="42" rx="1" fill="white" stroke="#68CCF3" stroke-width="4" mask="url(#path-1-inside-1_223_2535)"/>
<mask id="path-2-inside-2_223_2535" fill="white">
<rect x="20" y="25" width="6" height="13" rx="1"/>
</mask>
<rect x="20" y="25" width="6" height="13" rx="1" fill="white" stroke="#68CCF3" stroke-width="4" mask="url(#path-2-inside-2_223_2535)"/>
<mask id="path-3-inside-3_223_2535" fill="white">
<rect x="14" y="4" width="18" height="10" rx="1"/>
</mask>
<rect x="14" y="4" width="18" height="10" rx="1" fill="white" stroke="#68CCF3" stroke-width="4" mask="url(#path-3-inside-3_223_2535)"/>
<rect x="18.5" y="12.5" width="8" height="1" transform="rotate(-90 18.5 12.5)" fill="black" stroke="#68CCF3"/>
<rect x="22.5" y="12.5" width="8" height="1" transform="rotate(-90 22.5 12.5)" fill="black" stroke="#68CCF3"/>
<rect x="26.5" y="12.5" width="8" height="1" transform="rotate(-90 26.5 12.5)" fill="black" stroke="#68CCF3"/>
<mask id="path-7-inside-4_223_2535" fill="white">
<path d="M37 24H39V53C39 53.5523 38.5523 54 38 54C37.4477 54 37 53.5523 37 53V24Z"/>
</mask>
<path d="M37 24H39V53C39 53.5523 38.5523 54 38 54C37.4477 54 37 53.5523 37 53V24Z" fill="white"/>
<path d="M37 24V22H35V24H37ZM39 24H41V22H39V24ZM37 26H39V22H37V26ZM37 24V53H41V24H37ZM39 53V24H35V53H39ZM38 52C38.5523 52 39 52.4477 39 53H35C35 54.6569 36.3431 56 38 56V52ZM37 53C37 52.4477 37.4477 52 38 52V56C39.6569 56 41 54.6569 41 53H37Z" fill="#68CCF3" mask="url(#path-7-inside-4_223_2535)"/>
<path d="M42 16.5C42 18.7006 41.4732 20.644 40.6736 22.0034C39.8604 23.3859 38.8816 24 38 24C37.1184 24 36.1396 23.3859 35.3264 22.0034C34.5268 20.644 34 18.7006 34 16.5C34 14.2994 34.5268 12.356 35.3264 10.9966C36.1396 9.61413 37.1184 9 38 9C38.8816 9 39.8604 9.61413 40.6736 10.9966C41.4732 12.356 42 14.2994 42 16.5Z" fill="white" stroke="#68CCF3" stroke-width="2"/>
</svg>
